<?xml version="1.0" encoding="utf-8" standalone="no"?>
<!DOCTYPE svg PUBLIC "-//W3C//DTD SVG 1.1//EN"
  "http://www.w3.org/Graphics/SVG/1.1/DTD/svg11.dtd">
<!-- Created with matplotlib (https://matplotlib.org/) -->
<svg height="345.6pt" version="1.1" viewBox="0 0 460.8 345.6" width="460.8pt" xmlns="http://www.w3.org/2000/svg" xmlns:xlink="http://www.w3.org/1999/xlink">
 <defs>
  <style type="text/css">
*{stroke-linecap:butt;stroke-linejoin:round;}
  </style>
 </defs>
 <g id="figure_1">
  <g id="patch_1">
   <path d="M 0 345.6 
L 460.8 345.6 
L 460.8 0 
L 0 0 
z
" style="fill:#ffffff;"/>
  </g>
  <g id="axes_1">
   <g id="patch_2">
    <path d="M 57.6 307.584 
L 414.72 307.584 
L 414.72 41.472 
L 57.6 41.472 
z
" style="fill:#ffffff;"/>
   </g>
   <g id="patch_3">
    <path clip-path="url(#p6a42ae5c8a)" d="M 73.832727 307.584 
L 75.100909 307.584 
L 75.100909 306.934448 
L 73.832727 306.934448 
z
" style="fill:#95ed64;opacity:0.95;"/>
   </g>
   <g id="patch_4">
    <path clip-path="url(#p6a42ae5c8a)" d="M 75.100909 307.584 
L 76.369091 307.584 
L 76.369091 307.392955 
L 75.100909 307.392955 
z
" style="fill:#95ed64;opacity:0.95;"/>
   </g>
   <g id="patch_5">
    <path clip-path="url(#p6a42ae5c8a)" d="M 76.369091 307.584 
L 77.637273 307.584 
L 77.637273 307.431164 
L 76.369091 307.431164 
z
" style="fill:#95ed64;opacity:0.95;"/>
   </g>
   <g id="patch_6">
    <path clip-path="url(#p6a42ae5c8a)" d="M 77.637273 307.584 
L 78.905455 307.584 
L 78.905455 307.392955 
L 77.637273 307.392955 
z
" style="fill:#95ed64;opacity:0.95;"/>
   </g>
   <g id="patch_7">
    <path clip-path="url(#p6a42ae5c8a)" d="M 78.905455 307.584 
L 80.173636 307.584 
L 80.173636 307.163701 
L 78.905455 307.163701 
z
" style="fill:#95ed64;opacity:0.95;"/>
   </g>
   <g id="patch_8">
    <path clip-path="url(#p6a42ae5c8a)" d="M 80.173636 307.584 
L 81.441818 307.584 
L 81.441818 307.087284 
L 80.173636 307.087284 
z
" style="fill:#95ed64;opacity:0.95;"/>
   </g>
   <g id="patch_9">
    <path clip-path="url(#p6a42ae5c8a)" d="M 81.441818 307.584 
L 82.71 307.584 
L 82.71 307.240119 
L 81.441818 307.240119 
z
" style="fill:#95ed64;opacity:0.95;"/>
   </g>
   <g id="patch_10">
    <path clip-path="url(#p6a42ae5c8a)" d="M 82.71 307.584 
L 83.978182 307.584 
L 83.978182 307.163701 
L 82.71 307.163701 
z
" style="fill:#95ed64;opacity:0.95;"/>
   </g>
   <g id="patch_11">
    <path clip-path="url(#p6a42ae5c8a)" d="M 83.978182 307.584 
L 85.246364 307.584 
L 85.246364 307.20191 
L 83.978182 307.20191 
z
" style="fill:#95ed64;opacity:0.95;"/>
   </g>
   <g id="patch_12">
    <path clip-path="url(#p6a42ae5c8a)" d="M 85.246364 307.584 
L 86.514545 307.584 
L 86.514545 306.85803 
L 85.246364 306.85803 
z
" style="fill:#95ed64;opacity:0.95;"/>
   </g>
   <g id="patch_13">
    <path clip-path="url(#p6a42ae5c8a)" d="M 86.514545 307.584 
L 87.782727 307.584 
L 87.782727 306.934448 
L 86.514545 306.934448 
z
" style="fill:#95ed64;opacity:0.95;"/>
   </g>
   <g id="patch_14">
    <path clip-path="url(#p6a42ae5c8a)" d="M 87.782727 307.584 
L 89.050909 307.584 
L 89.050909 307.010866 
L 87.782727 307.010866 
z
" style="fill:#95ed64;opacity:0.95;"/>
   </g>
   <g id="patch_15">
    <path clip-path="url(#p6a42ae5c8a)" d="M 89.050909 307.584 
L 90.319091 307.584 
L 90.319091 306.781612 
L 89.050909 306.781612 
z
" style="fill:#95ed64;opacity:0.95;"/>
   </g>
   <g id="patch_16">
    <path clip-path="url(#p6a42ae5c8a)" d="M 90.319091 307.584 
L 91.587273 307.584 
L 91.587273 306.628776 
L 90.319091 306.628776 
z
" style="fill:#95ed64;opacity:0.95;"/>
   </g>
   <g id="patch_17">
    <path clip-path="url(#p6a42ae5c8a)" d="M 91.587273 307.584 
L 92.855455 307.584 
L 92.855455 306.208478 
L 91.587273 306.208478 
z
" style="fill:#95ed64;opacity:0.95;"/>
   </g>
   <g id="patch_18">
    <path clip-path="url(#p6a42ae5c8a)" d="M 92.855455 307.584 
L 94.123636 307.584 
L 94.123636 306.093851 
L 92.855455 306.093851 
z
" style="fill:#95ed64;opacity:0.95;"/>
   </g>
   <g id="patch_19">
    <path clip-path="url(#p6a42ae5c8a)" d="M 94.123636 307.584 
L 95.391818 307.584 
L 95.391818 305.979224 
L 94.123636 305.979224 
z
" style="fill:#95ed64;opacity:0.95;"/>
   </g>
   <g id="patch_20">
    <path clip-path="url(#p6a42ae5c8a)" d="M 95.391818 307.584 
L 96.66 307.584 
L 96.66 305.826388 
L 95.391818 305.826388 
z
" style="fill:#95ed64;opacity:0.95;"/>
   </g>
   <g id="patch_21">
    <path clip-path="url(#p6a42ae5c8a)" d="M 96.66 307.584 
L 97.928182 307.584 
L 97.928182 305.520716 
L 96.66 305.520716 
z
" style="fill:#95ed64;opacity:0.95;"/>
   </g>
   <g id="patch_22">
    <path clip-path="url(#p6a42ae5c8a)" d="M 97.928182 307.584 
L 99.196364 307.584 
L 99.196364 305.520716 
L 97.928182 305.520716 
z
" style="fill:#95ed64;opacity:0.95;"/>
   </g>
   <g id="patch_23">
    <path clip-path="url(#p6a42ae5c8a)" d="M 99.196364 307.584 
L 100.464545 307.584 
L 100.464545 305.864597 
L 99.196364 305.864597 
z
" style="fill:#95ed64;opacity:0.95;"/>
   </g>
   <g id="patch_24">
    <path clip-path="url(#p6a42ae5c8a)" d="M 100.464545 307.584 
L 101.732727 307.584 
L 101.732727 304.947582 
L 100.464545 304.947582 
z
" style="fill:#95ed64;opacity:0.95;"/>
   </g>
   <g id="patch_25">
    <path clip-path="url(#p6a42ae5c8a)" d="M 101.732727 307.584 
L 103.000909 307.584 
L 103.000909 304.527284 
L 101.732727 304.527284 
z
" style="fill:#95ed64;opacity:0.95;"/>
   </g>
   <g id="patch_26">
    <path clip-path="url(#p6a42ae5c8a)" d="M 103.000909 307.584 
L 104.269091 307.584 
L 104.269091 304.374448 
L 103.000909 304.374448 
z
" style="fill:#95ed64;opacity:0.95;"/>
   </g>
   <g id="patch_27">
    <path clip-path="url(#p6a42ae5c8a)" d="M 104.269091 307.584 
L 105.537273 307.584 
L 105.537273 303.648478 
L 104.269091 303.648478 
z
" style="fill:#95ed64;opacity:0.95;"/>
   </g>
   <g id="patch_28">
    <path clip-path="url(#p6a42ae5c8a)" d="M 105.537273 307.584 
L 106.805455 307.584 
L 106.805455 303.648478 
L 105.537273 303.648478 
z
" style="fill:#95ed64;opacity:0.95;"/>
   </g>
   <g id="patch_29">
    <path clip-path="url(#p6a42ae5c8a)" d="M 106.805455 307.584 
L 108.073636 307.584 
L 108.073636 303.342806 
L 106.805455 303.342806 
z
" style="fill:#95ed64;opacity:0.95;"/>
   </g>
   <g id="patch_30">
    <path clip-path="url(#p6a42ae5c8a)" d="M 108.073636 307.584 
L 109.341818 307.584 
L 109.341818 303.686687 
L 108.073636 303.686687 
z
" style="fill:#95ed64;opacity:0.95;"/>
   </g>
   <g id="patch_31">
    <path clip-path="url(#p6a42ae5c8a)" d="M 109.341818 307.584 
L 110.61 307.584 
L 110.61 303.304597 
L 109.341818 303.304597 
z
" style="fill:#95ed64;opacity:0.95;"/>
   </g>
   <g id="patch_32">
    <path clip-path="url(#p6a42ae5c8a)" d="M 110.61 307.584 
L 111.878182 307.584 
L 111.878182 303.724896 
L 110.61 303.724896 
z
" style="fill:#95ed64;opacity:0.95;"/>
   </g>
   <g id="patch_33">
    <path clip-path="url(#p6a42ae5c8a)" d="M 111.878182 307.584 
L 113.146364 307.584 
L 113.146364 303.419224 
L 111.878182 303.419224 
z
" style="fill:#95ed64;opacity:0.95;"/>
   </g>
   <g id="patch_34">
    <path clip-path="url(#p6a42ae5c8a)" d="M 113.146364 307.584 
L 114.414545 307.584 
L 114.414545 303.954149 
L 113.146364 303.954149 
z
" style="fill:#95ed64;opacity:0.95;"/>
   </g>
   <g id="patch_35">
    <path clip-path="url(#p6a42ae5c8a)" d="M 114.414545 307.584 
L 115.682727 307.584 
L 115.682727 303.495642 
L 114.414545 303.495642 
z
" style="fill:#95ed64;opacity:0.95;"/>
   </g>
   <g id="patch_36">
    <path clip-path="url(#p6a42ae5c8a)" d="M 115.682727 307.584 
L 116.950909 307.584 
L 116.950909 302.234746 
L 115.682727 302.234746 
z
" style="fill:#95ed64;opacity:0.95;"/>
   </g>
   <g id="patch_37">
    <path clip-path="url(#p6a42ae5c8a)" d="M 116.950909 307.584 
L 118.219091 307.584 
L 118.219091 302.043701 
L 116.950909 302.043701 
z
" style="fill:#95ed64;opacity:0.95;"/>
   </g>
   <g id="patch_38">
    <path clip-path="url(#p6a42ae5c8a)" d="M 118.219091 307.584 
L 119.487273 307.584 
L 119.487273 303.381015 
L 118.219091 303.381015 
z
" style="fill:#95ed64;opacity:0.95;"/>
   </g>
   <g id="patch_39">
    <path clip-path="url(#p6a42ae5c8a)" d="M 119.487273 307.584 
L 120.755455 307.584 
L 120.755455 302.731463 
L 119.487273 302.731463 
z
" style="fill:#95ed64;opacity:0.95;"/>
   </g>
   <g id="patch_40">
    <path clip-path="url(#p6a42ae5c8a)" d="M 120.755455 307.584 
L 122.023636 307.584 
L 122.023636 302.158328 
L 120.755455 302.158328 
z
" style="fill:#95ed64;opacity:0.95;"/>
   </g>
   <g id="patch_41">
    <path clip-path="url(#p6a42ae5c8a)" d="M 122.023636 307.584 
L 123.291818 307.584 
L 123.291818 302.196537 
L 122.023636 302.196537 
z
" style="fill:#95ed64;opacity:0.95;"/>
   </g>
   <g id="patch_42">
    <path clip-path="url(#p6a42ae5c8a)" d="M 123.291818 307.584 
L 124.56 307.584 
L 124.56 301.890866 
L 123.291818 301.890866 
z
" style="fill:#95ed64;opacity:0.95;"/>
   </g>
   <g id="patch_43">
    <path clip-path="url(#p6a42ae5c8a)" d="M 124.56 307.584 
L 125.828182 307.584 
L 125.828182 301.203104 
L 124.56 301.203104 
z
" style="fill:#95ed64;opacity:0.95;"/>
   </g>
   <g id="patch_44">
    <path clip-path="url(#p6a42ae5c8a)" d="M 125.828182 307.584 
L 127.096364 307.584 
L 127.096364 300.897433 
L 125.828182 300.897433 
z
" style="fill:#95ed64;opacity:0.95;"/>
   </g>
   <g id="patch_45">
    <path clip-path="url(#p6a42ae5c8a)" d="M 127.096364 307.584 
L 128.364545 307.584 
L 128.364545 299.636537 
L 127.096364 299.636537 
z
" style="fill:#95ed64;opacity:0.95;"/>
   </g>
   <g id="patch_46">
    <path clip-path="url(#p6a42ae5c8a)" d="M 128.364545 307.584 
L 129.632727 307.584 
L 129.632727 298.490269 
L 128.364545 298.490269 
z
" style="fill:#95ed64;opacity:0.95;"/>
   </g>
   <g id="patch_47">
    <path clip-path="url(#p6a42ae5c8a)" d="M 129.632727 307.584 
L 130.900909 307.584 
L 130.900909 297.917134 
L 129.632727 297.917134 
z
" style="fill:#95ed64;opacity:0.95;"/>
   </g>
   <g id="patch_48">
    <path clip-path="url(#p6a42ae5c8a)" d="M 130.900909 307.584 
L 132.169091 307.584 
L 132.169091 296.61803 
L 130.900909 296.61803 
z
" style="fill:#95ed64;opacity:0.95;"/>
   </g>
   <g id="patch_49">
    <path clip-path="url(#p6a42ae5c8a)" d="M 132.169091 307.584 
L 133.437273 307.584 
L 133.437273 295.815642 
L 132.169091 295.815642 
z
" style="fill:#95ed64;opacity:0.95;"/>
   </g>
   <g id="patch_50">
    <path clip-path="url(#p6a42ae5c8a)" d="M 133.437273 307.584 
L 134.705455 307.584 
L 134.705455 294.975045 
L 133.437273 294.975045 
z
" style="fill:#95ed64;opacity:0.95;"/>
   </g>
   <g id="patch_51">
    <path clip-path="url(#p6a42ae5c8a)" d="M 134.705455 307.584 
L 135.973636 307.584 
L 135.973636 293.523104 
L 134.705455 293.523104 
z
" style="fill:#95ed64;opacity:0.95;"/>
   </g>
   <g id="patch_52">
    <path clip-path="url(#p6a42ae5c8a)" d="M 135.973636 307.584 
L 137.241818 307.584 
L 137.241818 291.154149 
L 135.973636 291.154149 
z
" style="fill:#95ed64;opacity:0.95;"/>
   </g>
   <g id="patch_53">
    <path clip-path="url(#p6a42ae5c8a)" d="M 137.241818 307.584 
L 138.51 307.584 
L 138.51 288.059224 
L 137.241818 288.059224 
z
" style="fill:#95ed64;opacity:0.95;"/>
   </g>
   <g id="patch_54">
    <path clip-path="url(#p6a42ae5c8a)" d="M 138.51 307.584 
L 139.778182 307.584 
L 139.778182 287.371463 
L 138.51 287.371463 
z
" style="fill:#95ed64;opacity:0.95;"/>
   </g>
   <g id="patch_55">
    <path clip-path="url(#p6a42ae5c8a)" d="M 139.778182 307.584 
L 141.046364 307.584 
L 141.046364 286.110567 
L 139.778182 286.110567 
z
" style="fill:#95ed64;opacity:0.95;"/>
   </g>
   <g id="patch_56">
    <path clip-path="url(#p6a42ae5c8a)" d="M 141.046364 307.584 
L 142.314545 307.584 
L 142.314545 283.932657 
L 141.046364 283.932657 
z
" style="fill:#95ed64;opacity:0.95;"/>
   </g>
   <g id="patch_57">
    <path clip-path="url(#p6a42ae5c8a)" d="M 142.314545 307.584 
L 143.582727 307.584 
L 143.582727 278.545194 
L 142.314545 278.545194 
z
" style="fill:#95ed64;opacity:0.95;"/>
   </g>
   <g id="patch_58">
    <path clip-path="url(#p6a42ae5c8a)" d="M 143.582727 307.584 
L 144.850909 307.584 
L 144.850909 271.438328 
L 143.582727 271.438328 
z
" style="fill:#95ed64;opacity:0.95;"/>
   </g>
   <g id="patch_59">
    <path clip-path="url(#p6a42ae5c8a)" d="M 144.850909 307.584 
L 146.119091 307.584 
L 146.119091 270.253851 
L 144.850909 270.253851 
z
" style="fill:#95ed64;opacity:0.95;"/>
   </g>
   <g id="patch_60">
    <path clip-path="url(#p6a42ae5c8a)" d="M 146.119091 307.584 
L 147.387273 307.584 
L 147.387273 264.140418 
L 146.119091 264.140418 
z
" style="fill:#95ed64;opacity:0.95;"/>
   </g>
   <g id="patch_61">
    <path clip-path="url(#p6a42ae5c8a)" d="M 147.387273 307.584 
L 148.655455 307.584 
L 148.655455 257.83594 
L 147.387273 257.83594 
z
" style="fill:#95ed64;opacity:0.95;"/>
   </g>
   <g id="patch_62">
    <path clip-path="url(#p6a42ae5c8a)" d="M 148.655455 307.584 
L 149.923636 307.584 
L 149.923636 251.302209 
L 148.655455 251.302209 
z
" style="fill:#95ed64;opacity:0.95;"/>
   </g>
   <g id="patch_63">
    <path clip-path="url(#p6a42ae5c8a)" d="M 149.923636 307.584 
L 151.191818 307.584 
L 151.191818 242.819821 
L 149.923636 242.819821 
z
" style="fill:#95ed64;opacity:0.95;"/>
   </g>
   <g id="patch_64">
    <path clip-path="url(#p6a42ae5c8a)" d="M 151.191818 307.584 
L 152.46 307.584 
L 152.46 232.732657 
L 151.191818 232.732657 
z
" style="fill:#95ed64;opacity:0.95;"/>
   </g>
   <g id="patch_65">
    <path clip-path="url(#p6a42ae5c8a)" d="M 152.46 307.584 
L 153.728182 307.584 
L 153.728182 222.530866 
L 152.46 222.530866 
z
" style="fill:#95ed64;opacity:0.95;"/>
   </g>
   <g id="patch_66">
    <path clip-path="url(#p6a42ae5c8a)" d="M 153.728182 307.584 
L 154.996364 307.584 
L 154.996364 208.890269 
L 153.728182 208.890269 
z
" style="fill:#95ed64;opacity:0.95;"/>
   </g>
   <g id="patch_67">
    <path clip-path="url(#p6a42ae5c8a)" d="M 154.996364 307.584 
L 156.264545 307.584 
L 156.264545 198.421015 
L 154.996364 198.421015 
z
" style="fill:#95ed64;opacity:0.95;"/>
   </g>
   <g id="patch_68">
    <path clip-path="url(#p6a42ae5c8a)" d="M 156.264545 307.584 
L 157.532727 307.584 
L 157.532727 174.960716 
L 156.264545 174.960716 
z
" style="fill:#95ed64;opacity:0.95;"/>
   </g>
   <g id="patch_69">
    <path clip-path="url(#p6a42ae5c8a)" d="M 157.532727 307.584 
L 158.800909 307.584 
L 158.800909 163.077731 
L 157.532727 163.077731 
z
" style="fill:#95ed64;opacity:0.95;"/>
   </g>
   <g id="patch_70">
    <path clip-path="url(#p6a42ae5c8a)" d="M 158.800909 307.584 
L 160.069091 307.584 
L 160.069091 140.152358 
L 158.800909 140.152358 
z
" style="fill:#95ed64;opacity:0.95;"/>
   </g>
   <g id="patch_71">
    <path clip-path="url(#p6a42ae5c8a)" d="M 160.069091 307.584 
L 161.337273 307.584 
L 161.337273 122.423403 
L 160.069091 122.423403 
z
" style="fill:#95ed64;opacity:0.95;"/>
   </g>
   <g id="patch_72">
    <path clip-path="url(#p6a42ae5c8a)" d="M 161.337273 307.584 
L 162.605455 307.584 
L 162.605455 113.40609 
L 161.337273 113.40609 
z
" style="fill:#95ed64;opacity:0.95;"/>
   </g>
   <g id="patch_73">
    <path clip-path="url(#p6a42ae5c8a)" d="M 162.605455 307.584 
L 163.873636 307.584 
L 163.873636 95.256836 
L 162.605455 95.256836 
z
" style="fill:#95ed64;opacity:0.95;"/>
   </g>
   <g id="patch_74">
    <path clip-path="url(#p6a42ae5c8a)" d="M 163.873636 307.584 
L 165.141818 307.584 
L 165.141818 82.227582 
L 163.873636 82.227582 
z
" style="fill:#95ed64;opacity:0.95;"/>
   </g>
   <g id="patch_75">
    <path clip-path="url(#p6a42ae5c8a)" d="M 165.141818 307.584 
L 166.41 307.584 
L 166.41 72.942806 
L 165.141818 72.942806 
z
" style="fill:#95ed64;opacity:0.95;"/>
   </g>
   <g id="patch_76">
    <path clip-path="url(#p6a42ae5c8a)" d="M 166.41 307.584 
L 167.678182 307.584 
L 167.678182 70.764896 
L 166.41 70.764896 
z
" style="fill:#95ed64;opacity:0.95;"/>
   </g>
   <g id="patch_77">
    <path clip-path="url(#p6a42ae5c8a)" d="M 167.678182 307.584 
L 168.946364 307.584 
L 168.946364 60.830567 
L 167.678182 60.830567 
z
" style="fill:#95ed64;opacity:0.95;"/>
   </g>
   <g id="patch_78">
    <path clip-path="url(#p6a42ae5c8a)" d="M 168.946364 307.584 
L 170.214545 307.584 
L 170.214545 63.046687 
L 168.946364 63.046687 
z
" style="fill:#95ed64;opacity:0.95;"/>
   </g>
   <g id="patch_79">
    <path clip-path="url(#p6a42ae5c8a)" d="M 170.214545 307.584 
L 171.482727 307.584 
L 171.482727 55.939821 
L 170.214545 55.939821 
z
" style="fill:#95ed64;opacity:0.95;"/>
   </g>
   <g id="patch_80">
    <path clip-path="url(#p6a42ae5c8a)" d="M 171.482727 307.584 
L 172.750909 307.584 
L 172.750909 54.144 
L 171.482727 54.144 
z
" style="fill:#95ed64;opacity:0.95;"/>
   </g>
   <g id="patch_81">
    <path clip-path="url(#p6a42ae5c8a)" d="M 172.750909 307.584 
L 174.019091 307.584 
L 174.019091 59.913552 
L 172.750909 59.913552 
z
" style="fill:#95ed64;opacity:0.95;"/>
   </g>
   <g id="patch_82">
    <path clip-path="url(#p6a42ae5c8a)" d="M 174.019091 307.584 
L 175.287273 307.584 
L 175.287273 71.414448 
L 174.019091 71.414448 
z
" style="fill:#95ed64;opacity:0.95;"/>
   </g>
   <g id="patch_83">
    <path clip-path="url(#p6a42ae5c8a)" d="M 175.287273 307.584 
L 176.555455 307.584 
L 176.555455 84.749373 
L 175.287273 84.749373 
z
" style="fill:#95ed64;opacity:0.95;"/>
   </g>
   <g id="patch_84">
    <path clip-path="url(#p6a42ae5c8a)" d="M 176.555455 307.584 
L 177.823636 307.584 
L 177.823636 103.777433 
L 176.555455 103.777433 
z
" style="fill:#95ed64;opacity:0.95;"/>
   </g>
   <g id="patch_85">
    <path clip-path="url(#p6a42ae5c8a)" d="M 177.823636 307.584 
L 179.091818 307.584 
L 179.091818 121.08609 
L 177.823636 121.08609 
z
" style="fill:#95ed64;opacity:0.95;"/>
   </g>
   <g id="patch_86">
    <path clip-path="url(#p6a42ae5c8a)" d="M 179.091818 307.584 
L 180.36 307.584 
L 180.36 131.440716 
L 179.091818 131.440716 
z
" style="fill:#95ed64;opacity:0.95;"/>
   </g>
   <g id="patch_87">
    <path clip-path="url(#p6a42ae5c8a)" d="M 180.36 307.584 
L 181.628182 307.584 
L 181.628182 149.551761 
L 180.36 149.551761 
z
" style="fill:#95ed64;opacity:0.95;"/>
   </g>
   <g id="patch_88">
    <path clip-path="url(#p6a42ae5c8a)" d="M 181.628182 307.584 
L 182.896364 307.584 
L 182.896364 156.276537 
L 181.628182 156.276537 
z
" style="fill:#95ed64;opacity:0.95;"/>
   </g>
   <g id="patch_89">
    <path clip-path="url(#p6a42ae5c8a)" d="M 182.896364 307.584 
L 184.164545 307.584 
L 184.164545 162.313552 
L 182.896364 162.313552 
z
" style="fill:#95ed64;opacity:0.95;"/>
   </g>
   <g id="patch_90">
    <path clip-path="url(#p6a42ae5c8a)" d="M 184.164545 307.584 
L 185.432727 307.584 
L 185.432727 170.872358 
L 184.164545 170.872358 
z
" style="fill:#95ed64;opacity:0.95;"/>
   </g>
   <g id="patch_91">
    <path clip-path="url(#p6a42ae5c8a)" d="M 185.432727 307.584 
L 186.700909 307.584 
L 186.700909 177.253254 
L 185.432727 177.253254 
z
" style="fill:#95ed64;opacity:0.95;"/>
   </g>
   <g id="patch_92">
    <path clip-path="url(#p6a42ae5c8a)" d="M 186.700909 307.584 
L 187.969091 307.584 
L 187.969091 186.996537 
L 186.700909 186.996537 
z
" style="fill:#95ed64;opacity:0.95;"/>
   </g>
   <g id="patch_93">
    <path clip-path="url(#p6a42ae5c8a)" d="M 187.969091 307.584 
L 189.237273 307.584 
L 189.237273 197.236537 
L 187.969091 197.236537 
z
" style="fill:#95ed64;opacity:0.95;"/>
   </g>
   <g id="patch_94">
    <path clip-path="url(#p6a42ae5c8a)" d="M 189.237273 307.584 
L 190.505455 307.584 
L 190.505455 207.400119 
L 189.237273 207.400119 
z
" style="fill:#95ed64;opacity:0.95;"/>
   </g>
   <g id="patch_95">
    <path clip-path="url(#p6a42ae5c8a)" d="M 190.505455 307.584 
L 191.773636 307.584 
L 191.773636 216.761313 
L 190.505455 216.761313 
z
" style="fill:#95ed64;opacity:0.95;"/>
   </g>
   <g id="patch_96">
    <path clip-path="url(#p6a42ae5c8a)" d="M 191.773636 307.584 
L 193.041818 307.584 
L 193.041818 226.007881 
L 191.773636 226.007881 
z
" style="fill:#95ed64;opacity:0.95;"/>
   </g>
   <g id="patch_97">
    <path clip-path="url(#p6a42ae5c8a)" d="M 193.041818 307.584 
L 194.31 307.584 
L 194.31 230.478328 
L 193.041818 230.478328 
z
" style="fill:#95ed64;opacity:0.95;"/>
   </g>
   <g id="patch_98">
    <path clip-path="url(#p6a42ae5c8a)" d="M 194.31 307.584 
L 195.578182 307.584 
L 195.578182 235.139821 
L 194.31 235.139821 
z
" style="fill:#95ed64;opacity:0.95;"/>
   </g>
   <g id="patch_99">
    <path clip-path="url(#p6a42ae5c8a)" d="M 195.578182 307.584 
L 196.846364 307.584 
L 196.846364 238.616836 
L 195.578182 238.616836 
z
" style="fill:#95ed64;opacity:0.95;"/>
   </g>
   <g id="patch_100">
    <path clip-path="url(#p6a42ae5c8a)" d="M 196.846364 307.584 
L 198.114545 307.584 
L 198.114545 238.349373 
L 196.846364 238.349373 
z
" style="fill:#95ed64;opacity:0.95;"/>
   </g>
   <g id="patch_101">
    <path clip-path="url(#p6a42ae5c8a)" d="M 198.114545 307.584 
L 199.382727 307.584 
L 199.382727 239.419224 
L 198.114545 239.419224 
z
" style="fill:#95ed64;opacity:0.95;"/>
   </g>
   <g id="patch_102">
    <path clip-path="url(#p6a42ae5c8a)" d="M 199.382727 307.584 
L 200.650909 307.584 
L 200.650909 238.807881 
L 199.382727 238.807881 
z
" style="fill:#95ed64;opacity:0.95;"/>
   </g>
   <g id="patch_103">
    <path clip-path="url(#p6a42ae5c8a)" d="M 200.650909 307.584 
L 201.919091 307.584 
L 201.919091 239.228179 
L 200.650909 239.228179 
z
" style="fill:#95ed64;opacity:0.95;"/>
   </g>
   <g id="patch_104">
    <path clip-path="url(#p6a42ae5c8a)" d="M 201.919091 307.584 
L 203.187273 307.584 
L 203.187273 239.57206 
L 201.919091 239.57206 
z
" style="fill:#95ed64;opacity:0.95;"/>
   </g>
   <g id="patch_105">
    <path clip-path="url(#p6a42ae5c8a)" d="M 203.187273 307.584 
L 204.455455 307.584 
L 204.455455 236.056836 
L 203.187273 236.056836 
z
" style="fill:#95ed64;opacity:0.95;"/>
   </g>
   <g id="patch_106">
    <path clip-path="url(#p6a42ae5c8a)" d="M 204.455455 307.584 
L 205.723636 307.584 
L 205.723636 238.655045 
L 204.455455 238.655045 
z
" style="fill:#95ed64;opacity:0.95;"/>
   </g>
   <g id="patch_107">
    <path clip-path="url(#p6a42ae5c8a)" d="M 205.723636 307.584 
L 206.991818 307.584 
L 206.991818 239.381015 
L 205.723636 239.381015 
z
" style="fill:#95ed64;opacity:0.95;"/>
   </g>
   <g id="patch_108">
    <path clip-path="url(#p6a42ae5c8a)" d="M 206.991818 307.584 
L 208.26 307.584 
L 208.26 232.006687 
L 206.991818 232.006687 
z
" style="fill:#95ed64;opacity:0.95;"/>
   </g>
   <g id="patch_109">
    <path clip-path="url(#p6a42ae5c8a)" d="M 208.26 307.584 
L 209.528182 307.584 
L 209.528182 235.865791 
L 208.26 235.865791 
z
" style="fill:#95ed64;opacity:0.95;"/>
   </g>
   <g id="patch_110">
    <path clip-path="url(#p6a42ae5c8a)" d="M 209.528182 307.584 
L 210.796364 307.584 
L 210.796364 234.45206 
L 209.528182 234.45206 
z
" style="fill:#95ed64;opacity:0.95;"/>
   </g>
   <g id="patch_111">
    <path clip-path="url(#p6a42ae5c8a)" d="M 210.796364 307.584 
L 212.064545 307.584 
L 212.064545 235.712955 
L 210.796364 235.712955 
z
" style="fill:#95ed64;opacity:0.95;"/>
   </g>
   <g id="patch_112">
    <path clip-path="url(#p6a42ae5c8a)" d="M 212.064545 307.584 
L 213.332727 307.584 
L 213.332727 232.579821 
L 212.064545 232.579821 
z
" style="fill:#95ed64;opacity:0.95;"/>
   </g>
   <g id="patch_113">
    <path clip-path="url(#p6a42ae5c8a)" d="M 213.332727 307.584 
L 214.600909 307.584 
L 214.600909 232.465194 
L 213.332727 232.465194 
z
" style="fill:#95ed64;opacity:0.95;"/>
   </g>
   <g id="patch_114">
    <path clip-path="url(#p6a42ae5c8a)" d="M 214.600909 307.584 
L 215.869091 307.584 
L 215.869091 233.305791 
L 214.600909 233.305791 
z
" style="fill:#95ed64;opacity:0.95;"/>
   </g>
   <g id="patch_115">
    <path clip-path="url(#p6a42ae5c8a)" d="M 215.869091 307.584 
L 217.137273 307.584 
L 217.137273 233.535045 
L 215.869091 233.535045 
z
" style="fill:#95ed64;opacity:0.95;"/>
   </g>
   <g id="patch_116">
    <path clip-path="url(#p6a42ae5c8a)" d="M 217.137273 307.584 
L 218.405455 307.584 
L 218.405455 228.835343 
L 217.137273 228.835343 
z
" style="fill:#95ed64;opacity:0.95;"/>
   </g>
   <g id="patch_117">
    <path clip-path="url(#p6a42ae5c8a)" d="M 218.405455 307.584 
L 219.673636 307.584 
L 219.673636 220.238328 
L 218.405455 220.238328 
z
" style="fill:#95ed64;opacity:0.95;"/>
   </g>
   <g id="patch_118">
    <path clip-path="url(#p6a42ae5c8a)" d="M 219.673636 307.584 
L 220.941818 307.584 
L 220.941818 214.277731 
L 219.673636 214.277731 
z
" style="fill:#95ed64;opacity:0.95;"/>
   </g>
   <g id="patch_119">
    <path clip-path="url(#p6a42ae5c8a)" d="M 220.941818 307.584 
L 222.21 307.584 
L 222.21 201.974448 
L 220.941818 201.974448 
z
" style="fill:#95ed64;opacity:0.95;"/>
   </g>
   <g id="patch_120">
    <path clip-path="url(#p6a42ae5c8a)" d="M 222.21 307.584 
L 223.478182 307.584 
L 223.478182 195.287881 
L 222.21 195.287881 
z
" style="fill:#95ed64;opacity:0.95;"/>
   </g>
   <g id="patch_121">
    <path clip-path="url(#p6a42ae5c8a)" d="M 223.478182 307.584 
L 224.746364 307.584 
L 224.746364 186.079522 
L 223.478182 186.079522 
z
" style="fill:#95ed64;opacity:0.95;"/>
   </g>
   <g id="patch_122">
    <path clip-path="url(#p6a42ae5c8a)" d="M 224.746364 307.584 
L 226.014545 307.584 
L 226.014545 176.068776 
L 224.746364 176.068776 
z
" style="fill:#95ed64;opacity:0.95;"/>
   </g>
   <g id="patch_123">
    <path clip-path="url(#p6a42ae5c8a)" d="M 226.014545 307.584 
L 227.282727 307.584 
L 227.282727 166.05803 
L 226.014545 166.05803 
z
" style="fill:#95ed64;opacity:0.95;"/>
   </g>
   <g id="patch_124">
    <path clip-path="url(#p6a42ae5c8a)" d="M 227.282727 307.584 
L 228.550909 307.584 
L 228.550909 167.815642 
L 227.282727 167.815642 
z
" style="fill:#95ed64;opacity:0.95;"/>
   </g>
   <g id="patch_125">
    <path clip-path="url(#p6a42ae5c8a)" d="M 228.550909 307.584 
L 229.819091 307.584 
L 229.819091 166.516537 
L 228.550909 166.516537 
z
" style="fill:#95ed64;opacity:0.95;"/>
   </g>
   <g id="patch_126">
    <path clip-path="url(#p6a42ae5c8a)" d="M 229.819091 307.584 
L 231.087273 307.584 
L 231.087273 174.349373 
L 229.819091 174.349373 
z
" style="fill:#95ed64;opacity:0.95;"/>
   </g>
   <g id="patch_127">
    <path clip-path="url(#p6a42ae5c8a)" d="M 231.087273 307.584 
L 232.355455 307.584 
L 232.355455 174.731463 
L 231.087273 174.731463 
z
" style="fill:#95ed64;opacity:0.95;"/>
   </g>
   <g id="patch_128">
    <path clip-path="url(#p6a42ae5c8a)" d="M 232.355455 307.584 
L 233.623636 307.584 
L 233.623636 175.686687 
L 232.355455 175.686687 
z
" style="fill:#95ed64;opacity:0.95;"/>
   </g>
   <g id="patch_129">
    <path clip-path="url(#p6a42ae5c8a)" d="M 233.623636 307.584 
L 234.891818 307.584 
L 234.891818 170.79594 
L 233.623636 170.79594 
z
" style="fill:#95ed64;opacity:0.95;"/>
   </g>
   <g id="patch_130">
    <path clip-path="url(#p6a42ae5c8a)" d="M 234.891818 307.584 
L 236.16 307.584 
L 236.16 174.655045 
L 234.891818 174.655045 
z
" style="fill:#95ed64;opacity:0.95;"/>
   </g>
   <g id="patch_131">
    <path clip-path="url(#p6a42ae5c8a)" d="M 236.16 307.584 
L 237.428182 307.584 
L 237.428182 174.807881 
L 236.16 174.807881 
z
" style="fill:#95ed64;opacity:0.95;"/>
   </g>
   <g id="patch_132">
    <path clip-path="url(#p6a42ae5c8a)" d="M 237.428182 307.584 
L 238.696364 307.584 
L 238.696364 172.935642 
L 237.428182 172.935642 
z
" style="fill:#95ed64;opacity:0.95;"/>
   </g>
   <g id="patch_133">
    <path clip-path="url(#p6a42ae5c8a)" d="M 238.696364 307.584 
L 239.964545 307.584 
L 239.964545 174.84609 
L 238.696364 174.84609 
z
" style="fill:#95ed64;opacity:0.95;"/>
   </g>
   <g id="patch_134">
    <path clip-path="url(#p6a42ae5c8a)" d="M 239.964545 307.584 
L 241.232727 307.584 
L 241.232727 176.412657 
L 239.964545 176.412657 
z
" style="fill:#95ed64;opacity:0.95;"/>
   </g>
   <g id="patch_135">
    <path clip-path="url(#p6a42ae5c8a)" d="M 241.232727 307.584 
L 242.500909 307.584 
L 242.500909 181.838328 
L 241.232727 181.838328 
z
" style="fill:#95ed64;opacity:0.95;"/>
   </g>
   <g id="patch_136">
    <path clip-path="url(#p6a42ae5c8a)" d="M 242.500909 307.584 
L 243.769091 307.584 
L 243.769091 180.042507 
L 242.500909 180.042507 
z
" style="fill:#95ed64;opacity:0.95;"/>
   </g>
   <g id="patch_137">
    <path clip-path="url(#p6a42ae5c8a)" d="M 243.769091 307.584 
L 245.037273 307.584 
L 245.037273 181.112358 
L 243.769091 181.112358 
z
" style="fill:#95ed64;opacity:0.95;"/>
   </g>
   <g id="patch_138">
    <path clip-path="url(#p6a42ae5c8a)" d="M 245.037273 307.584 
L 246.305455 307.584 
L 246.305455 180.195343 
L 245.037273 180.195343 
z
" style="fill:#95ed64;opacity:0.95;"/>
   </g>
   <g id="patch_139">
    <path clip-path="url(#p6a42ae5c8a)" d="M 246.305455 307.584 
L 247.573636 307.584 
L 247.573636 176.489075 
L 246.305455 176.489075 
z
" style="fill:#95ed64;opacity:0.95;"/>
   </g>
   <g id="patch_140">
    <path clip-path="url(#p6a42ae5c8a)" d="M 247.573636 307.584 
L 248.841818 307.584 
L 248.841818 180.386388 
L 247.573636 180.386388 
z
" style="fill:#95ed64;opacity:0.95;"/>
   </g>
   <g id="patch_141">
    <path clip-path="url(#p6a42ae5c8a)" d="M 248.841818 307.584 
L 250.11 307.584 
L 250.11 174.502209 
L 248.841818 174.502209 
z
" style="fill:#95ed64;opacity:0.95;"/>
   </g>
   <g id="patch_142">
    <path clip-path="url(#p6a42ae5c8a)" d="M 250.11 307.584 
L 251.378182 307.584 
L 251.378182 177.979224 
L 250.11 177.979224 
z
" style="fill:#95ed64;opacity:0.95;"/>
   </g>
   <g id="patch_143">
    <path clip-path="url(#p6a42ae5c8a)" d="M 251.378182 307.584 
L 252.646364 307.584 
L 252.646364 174.005493 
L 251.378182 174.005493 
z
" style="fill:#95ed64;opacity:0.95;"/>
   </g>
   <g id="patch_144">
    <path clip-path="url(#p6a42ae5c8a)" d="M 252.646364 307.584 
L 253.914545 307.584 
L 253.914545 180.080716 
L 252.646364 180.080716 
z
" style="fill:#95ed64;opacity:0.95;"/>
   </g>
   <g id="patch_145">
    <path clip-path="url(#p6a42ae5c8a)" d="M 253.914545 307.584 
L 255.182727 307.584 
L 255.182727 183.519522 
L 253.914545 183.519522 
z
" style="fill:#95ed64;opacity:0.95;"/>
   </g>
   <g id="patch_146">
    <path clip-path="url(#p6a42ae5c8a)" d="M 255.182727 307.584 
L 256.450909 307.584 
L 256.450909 189.44191 
L 255.182727 189.44191 
z
" style="fill:#95ed64;opacity:0.95;"/>
   </g>
   <g id="patch_147">
    <path clip-path="url(#p6a42ae5c8a)" d="M 256.450909 307.584 
L 257.719091 307.584 
L 257.719091 184.169075 
L 256.450909 184.169075 
z
" style="fill:#95ed64;opacity:0.95;"/>
   </g>
   <g id="patch_148">
    <path clip-path="url(#p6a42ae5c8a)" d="M 257.719091 307.584 
L 258.987273 307.584 
L 258.987273 186.614448 
L 257.719091 186.614448 
z
" style="fill:#95ed64;opacity:0.95;"/>
   </g>
   <g id="patch_149">
    <path clip-path="url(#p6a42ae5c8a)" d="M 258.987273 307.584 
L 260.255455 307.584 
L 260.255455 188.677731 
L 258.987273 188.677731 
z
" style="fill:#95ed64;opacity:0.95;"/>
   </g>
   <g id="patch_150">
    <path clip-path="url(#p6a42ae5c8a)" d="M 260.255455 307.584 
L 261.523636 307.584 
L 261.523636 192.154746 
L 260.255455 192.154746 
z
" style="fill:#95ed64;opacity:0.95;"/>
   </g>
   <g id="patch_151">
    <path clip-path="url(#p6a42ae5c8a)" d="M 261.523636 307.584 
L 262.791818 307.584 
L 262.791818 187.569672 
L 261.523636 187.569672 
z
" style="fill:#95ed64;opacity:0.95;"/>
   </g>
   <g id="patch_152">
    <path clip-path="url(#p6a42ae5c8a)" d="M 262.791818 307.584 
L 264.06 307.584 
L 264.06 187.98997 
L 262.791818 187.98997 
z
" style="fill:#95ed64;opacity:0.95;"/>
   </g>
   <g id="patch_153">
    <path clip-path="url(#p6a42ae5c8a)" d="M 264.06 307.584 
L 265.328182 307.584 
L 265.328182 186.690866 
L 264.06 186.690866 
z
" style="fill:#95ed64;opacity:0.95;"/>
   </g>
   <g id="patch_154">
    <path clip-path="url(#p6a42ae5c8a)" d="M 265.328182 307.584 
L 266.596364 307.584 
L 266.596364 189.480119 
L 265.328182 189.480119 
z
" style="fill:#95ed64;opacity:0.95;"/>
   </g>
   <g id="patch_155">
    <path clip-path="url(#p6a42ae5c8a)" d="M 266.596364 307.584 
L 267.864545 307.584 
L 267.864545 185.850269 
L 266.596364 185.850269 
z
" style="fill:#95ed64;opacity:0.95;"/>
   </g>
   <g id="patch_156">
    <path clip-path="url(#p6a42ae5c8a)" d="M 267.864545 307.584 
L 269.132727 307.584 
L 269.132727 182.220418 
L 267.864545 182.220418 
z
" style="fill:#95ed64;opacity:0.95;"/>
   </g>
   <g id="patch_157">
    <path clip-path="url(#p6a42ae5c8a)" d="M 269.132727 307.584 
L 270.400909 307.584 
L 270.400909 182.86997 
L 269.132727 182.86997 
z
" style="fill:#95ed64;opacity:0.95;"/>
   </g>
   <g id="patch_158">
    <path clip-path="url(#p6a42ae5c8a)" d="M 270.400909 307.584 
L 271.669091 307.584 
L 271.669091 182.258627 
L 270.400909 182.258627 
z
" style="fill:#95ed64;opacity:0.95;"/>
   </g>
   <g id="patch_159">
    <path clip-path="url(#p6a42ae5c8a)" d="M 271.669091 307.584 
L 272.937273 307.584 
L 272.937273 179.354746 
L 271.669091 179.354746 
z
" style="fill:#95ed64;opacity:0.95;"/>
   </g>
   <g id="patch_160">
    <path clip-path="url(#p6a42ae5c8a)" d="M 272.937273 307.584 
L 274.205455 307.584 
L 274.205455 179.622209 
L 272.937273 179.622209 
z
" style="fill:#95ed64;opacity:0.95;"/>
   </g>
   <g id="patch_161">
    <path clip-path="url(#p6a42ae5c8a)" d="M 274.205455 307.584 
L 275.473636 307.584 
L 275.473636 178.514149 
L 274.205455 178.514149 
z
" style="fill:#95ed64;opacity:0.95;"/>
   </g>
   <g id="patch_162">
    <path clip-path="url(#p6a42ae5c8a)" d="M 275.473636 307.584 
L 276.741818 307.584 
L 276.741818 175.381015 
L 275.473636 175.381015 
z
" style="fill:#95ed64;opacity:0.95;"/>
   </g>
   <g id="patch_163">
    <path clip-path="url(#p6a42ae5c8a)" d="M 276.741818 307.584 
L 278.01 307.584 
L 278.01 178.246687 
L 276.741818 178.246687 
z
" style="fill:#95ed64;opacity:0.95;"/>
   </g>
   <g id="patch_164">
    <path clip-path="url(#p6a42ae5c8a)" d="M 278.01 307.584 
L 279.278182 307.584 
L 279.278182 177.74997 
L 278.01 177.74997 
z
" style="fill:#95ed64;opacity:0.95;"/>
   </g>
   <g id="patch_165">
    <path clip-path="url(#p6a42ae5c8a)" d="M 279.278182 307.584 
L 280.546364 307.584 
L 280.546364 183.25206 
L 279.278182 183.25206 
z
" style="fill:#95ed64;opacity:0.95;"/>
   </g>
   <g id="patch_166">
    <path clip-path="url(#p6a42ae5c8a)" d="M 280.546364 307.584 
L 281.814545 307.584 
L 281.814545 186.194149 
L 280.546364 186.194149 
z
" style="fill:#95ed64;opacity:0.95;"/>
   </g>
   <g id="patch_167">
    <path clip-path="url(#p6a42ae5c8a)" d="M 281.814545 307.584 
L 283.082727 307.584 
L 283.082727 199.33803 
L 281.814545 199.33803 
z
" style="fill:#95ed64;opacity:0.95;"/>
   </g>
   <g id="patch_168">
    <path clip-path="url(#p6a42ae5c8a)" d="M 283.082727 307.584 
L 284.350909 307.584 
L 284.350909 199.911164 
L 283.082727 199.911164 
z
" style="fill:#95ed64;opacity:0.95;"/>
   </g>
   <g id="patch_169">
    <path clip-path="url(#p6a42ae5c8a)" d="M 284.350909 307.584 
L 285.619091 307.584 
L 285.619091 206.139224 
L 284.350909 206.139224 
z
" style="fill:#95ed64;opacity:0.95;"/>
   </g>
   <g id="patch_170">
    <path clip-path="url(#p6a42ae5c8a)" d="M 285.619091 307.584 
L 286.887273 307.584 
L 286.887273 196.625194 
L 285.619091 196.625194 
z
" style="fill:#95ed64;opacity:0.95;"/>
   </g>
   <g id="patch_171">
    <path clip-path="url(#p6a42ae5c8a)" d="M 286.887273 307.584 
L 288.155455 307.584 
L 288.155455 202.432955 
L 286.887273 202.432955 
z
" style="fill:#95ed64;opacity:0.95;"/>
   </g>
   <g id="patch_172">
    <path clip-path="url(#p6a42ae5c8a)" d="M 288.155455 307.584 
L 289.423636 307.584 
L 289.423636 205.871761 
L 288.155455 205.871761 
z
" style="fill:#95ed64;opacity:0.95;"/>
   </g>
   <g id="patch_173">
    <path clip-path="url(#p6a42ae5c8a)" d="M 289.423636 307.584 
L 290.691818 307.584 
L 290.691818 208.85206 
L 289.423636 208.85206 
z
" style="fill:#95ed64;opacity:0.95;"/>
   </g>
   <g id="patch_174">
    <path clip-path="url(#p6a42ae5c8a)" d="M 290.691818 307.584 
L 291.96 307.584 
L 291.96 215.500418 
L 290.691818 215.500418 
z
" style="fill:#95ed64;opacity:0.95;"/>
   </g>
   <g id="patch_175">
    <path clip-path="url(#p6a42ae5c8a)" d="M 291.96 307.584 
L 293.228182 307.584 
L 293.228182 221.919522 
L 291.96 221.919522 
z
" style="fill:#95ed64;opacity:0.95;"/>
   </g>
   <g id="patch_176">
    <path clip-path="url(#p6a42ae5c8a)" d="M 293.228182 307.584 
L 294.496364 307.584 
L 294.496364 218.213254 
L 293.228182 218.213254 
z
" style="fill:#95ed64;opacity:0.95;"/>
   </g>
   <g id="patch_177">
    <path clip-path="url(#p6a42ae5c8a)" d="M 294.496364 307.584 
L 295.764545 307.584 
L 295.764545 223.371463 
L 294.496364 223.371463 
z
" style="fill:#95ed64;opacity:0.95;"/>
   </g>
   <g id="patch_178">
    <path clip-path="url(#p6a42ae5c8a)" d="M 295.764545 307.584 
L 297.032727 307.584 
L 297.032727 223.982806 
L 295.764545 223.982806 
z
" style="fill:#95ed64;opacity:0.95;"/>
   </g>
   <g id="patch_179">
    <path clip-path="url(#p6a42ae5c8a)" d="M 297.032727 307.584 
L 298.300909 307.584 
L 298.300909 219.244896 
L 297.032727 219.244896 
z
" style="fill:#95ed64;opacity:0.95;"/>
   </g>
   <g id="patch_180">
    <path clip-path="url(#p6a42ae5c8a)" d="M 298.300909 307.584 
L 299.569091 307.584 
L 299.569091 222.110567 
L 298.300909 222.110567 
z
" style="fill:#95ed64;opacity:0.95;"/>
   </g>
   <g id="patch_181">
    <path clip-path="url(#p6a42ae5c8a)" d="M 299.569091 307.584 
L 300.837273 307.584 
L 300.837273 224.785194 
L 299.569091 224.785194 
z
" style="fill:#95ed64;opacity:0.95;"/>
   </g>
   <g id="patch_182">
    <path clip-path="url(#p6a42ae5c8a)" d="M 300.837273 307.584 
L 302.105455 307.584 
L 302.105455 230.936836 
L 300.837273 230.936836 
z
" style="fill:#95ed64;opacity:0.95;"/>
   </g>
   <g id="patch_183">
    <path clip-path="url(#p6a42ae5c8a)" d="M 302.105455 307.584 
L 303.373636 307.584 
L 303.373636 235.139821 
L 302.105455 235.139821 
z
" style="fill:#95ed64;opacity:0.95;"/>
   </g>
   <g id="patch_184">
    <path clip-path="url(#p6a42ae5c8a)" d="M 303.373636 307.584 
L 304.641818 307.584 
L 304.641818 238.005493 
L 303.373636 238.005493 
z
" style="fill:#95ed64;opacity:0.95;"/>
   </g>
   <g id="patch_185">
    <path clip-path="url(#p6a42ae5c8a)" d="M 304.641818 307.584 
L 305.91 307.584 
L 305.91 240.832955 
L 304.641818 240.832955 
z
" style="fill:#95ed64;opacity:0.95;"/>
   </g>
   <g id="patch_186">
    <path clip-path="url(#p6a42ae5c8a)" d="M 305.91 307.584 
L 307.178182 307.584 
L 307.178182 238.08191 
L 305.91 238.08191 
z
" style="fill:#95ed64;opacity:0.95;"/>
   </g>
   <g id="patch_187">
    <path clip-path="url(#p6a42ae5c8a)" d="M 307.178182 307.584 
L 308.446364 307.584 
L 308.446364 242.284896 
L 307.178182 242.284896 
z
" style="fill:#95ed64;opacity:0.95;"/>
   </g>
   <g id="patch_188">
    <path clip-path="url(#p6a42ae5c8a)" d="M 308.446364 307.584 
L 309.714545 307.584 
L 309.714545 243.087284 
L 308.446364 243.087284 
z
" style="fill:#95ed64;opacity:0.95;"/>
   </g>
   <g id="patch_189">
    <path clip-path="url(#p6a42ae5c8a)" d="M 309.714545 307.584 
L 310.982727 307.584 
L 310.982727 243.354746 
L 309.714545 243.354746 
z
" style="fill:#95ed64;opacity:0.95;"/>
   </g>
   <g id="patch_190">
    <path clip-path="url(#p6a42ae5c8a)" d="M 310.982727 307.584 
L 312.250909 307.584 
L 312.250909 246.411463 
L 310.982727 246.411463 
z
" style="fill:#95ed64;opacity:0.95;"/>
   </g>
   <g id="patch_191">
    <path clip-path="url(#p6a42ae5c8a)" d="M 312.250909 307.584 
L 313.519091 307.584 
L 313.519091 247.328478 
L 312.250909 247.328478 
z
" style="fill:#95ed64;opacity:0.95;"/>
   </g>
   <g id="patch_192">
    <path clip-path="url(#p6a42ae5c8a)" d="M 313.519091 307.584 
L 314.787273 307.584 
L 314.787273 251.531463 
L 313.519091 251.531463 
z
" style="fill:#95ed64;opacity:0.95;"/>
   </g>
   <g id="patch_193">
    <path clip-path="url(#p6a42ae5c8a)" d="M 314.787273 307.584 
L 316.055455 307.584 
L 316.055455 254.20609 
L 314.787273 254.20609 
z
" style="fill:#95ed64;opacity:0.95;"/>
   </g>
   <g id="patch_194">
    <path clip-path="url(#p6a42ae5c8a)" d="M 316.055455 307.584 
L 317.323636 307.584 
L 317.323636 254.20609 
L 316.055455 254.20609 
z
" style="fill:#95ed64;opacity:0.95;"/>
   </g>
   <g id="patch_195">
    <path clip-path="url(#p6a42ae5c8a)" d="M 317.323636 307.584 
L 318.591818 307.584 
L 318.591818 258.103403 
L 317.323636 258.103403 
z
" style="fill:#95ed64;opacity:0.95;"/>
   </g>
   <g id="patch_196">
    <path clip-path="url(#p6a42ae5c8a)" d="M 318.591818 307.584 
L 319.86 307.584 
L 319.86 261.847881 
L 318.591818 261.847881 
z
" style="fill:#95ed64;opacity:0.95;"/>
   </g>
   <g id="patch_197">
    <path clip-path="url(#p6a42ae5c8a)" d="M 319.86 307.584 
L 321.128182 307.584 
L 321.128182 263.529075 
L 319.86 263.529075 
z
" style="fill:#95ed64;opacity:0.95;"/>
   </g>
   <g id="patch_198">
    <path clip-path="url(#p6a42ae5c8a)" d="M 321.128182 307.584 
L 322.396364 307.584 
L 322.396364 260.854448 
L 321.128182 260.854448 
z
" style="fill:#95ed64;opacity:0.95;"/>
   </g>
   <g id="patch_199">
    <path clip-path="url(#p6a42ae5c8a)" d="M 322.396364 307.584 
L 323.664545 307.584 
L 323.664545 264.713552 
L 322.396364 264.713552 
z
" style="fill:#95ed64;opacity:0.95;"/>
   </g>
   <g id="patch_200">
    <path clip-path="url(#p6a42ae5c8a)" d="M 323.664545 307.584 
L 324.932727 307.584 
L 324.932727 266.738627 
L 323.664545 266.738627 
z
" style="fill:#95ed64;opacity:0.95;"/>
   </g>
   <g id="patch_201">
    <path clip-path="url(#p6a42ae5c8a)" d="M 324.932727 307.584 
L 326.200909 307.584 
L 326.200909 267.426388 
L 324.932727 267.426388 
z
" style="fill:#95ed64;opacity:0.95;"/>
   </g>
   <g id="patch_202">
    <path clip-path="url(#p6a42ae5c8a)" d="M 326.200909 307.584 
L 327.469091 307.584 
L 327.469091 272.087881 
L 326.200909 272.087881 
z
" style="fill:#95ed64;opacity:0.95;"/>
   </g>
   <g id="patch_203">
    <path clip-path="url(#p6a42ae5c8a)" d="M 327.469091 307.584 
L 328.737273 307.584 
L 328.737273 273.692657 
L 327.469091 273.692657 
z
" style="fill:#95ed64;opacity:0.95;"/>
   </g>
   <g id="patch_204">
    <path clip-path="url(#p6a42ae5c8a)" d="M 328.737273 307.584 
L 330.005455 307.584 
L 330.005455 271.285493 
L 328.737273 271.285493 
z
" style="fill:#95ed64;opacity:0.95;"/>
   </g>
   <g id="patch_205">
    <path clip-path="url(#p6a42ae5c8a)" d="M 330.005455 307.584 
L 331.273636 307.584 
L 331.273636 273.654448 
L 330.005455 273.654448 
z
" style="fill:#95ed64;opacity:0.95;"/>
   </g>
   <g id="patch_206">
    <path clip-path="url(#p6a42ae5c8a)" d="M 331.273636 307.584 
L 332.541818 307.584 
L 332.541818 272.85206 
L 331.273636 272.85206 
z
" style="fill:#95ed64;opacity:0.95;"/>
   </g>
   <g id="patch_207">
    <path clip-path="url(#p6a42ae5c8a)" d="M 332.541818 307.584 
L 333.81 307.584 
L 333.81 271.209075 
L 332.541818 271.209075 
z
" style="fill:#95ed64;opacity:0.95;"/>
   </g>
   <g id="patch_208">
    <path clip-path="url(#p6a42ae5c8a)" d="M 333.81 307.584 
L 335.078182 307.584 
L 335.078182 272.164299 
L 333.81 272.164299 
z
" style="fill:#95ed64;opacity:0.95;"/>
   </g>
   <g id="patch_209">
    <path clip-path="url(#p6a42ae5c8a)" d="M 335.078182 307.584 
L 336.346364 307.584 
L 336.346364 272.508179 
L 335.078182 272.508179 
z
" style="fill:#95ed64;opacity:0.95;"/>
   </g>
   <g id="patch_210">
    <path clip-path="url(#p6a42ae5c8a)" d="M 336.346364 307.584 
L 337.614545 307.584 
L 337.614545 274.609672 
L 336.346364 274.609672 
z
" style="fill:#95ed64;opacity:0.95;"/>
   </g>
   <g id="patch_211">
    <path clip-path="url(#p6a42ae5c8a)" d="M 337.614545 307.584 
L 338.882727 307.584 
L 338.882727 274.112955 
L 337.614545 274.112955 
z
" style="fill:#95ed64;opacity:0.95;"/>
   </g>
   <g id="patch_212">
    <path clip-path="url(#p6a42ae5c8a)" d="M 338.882727 307.584 
L 340.150909 307.584 
L 340.150909 274.112955 
L 338.882727 274.112955 
z
" style="fill:#95ed64;opacity:0.95;"/>
   </g>
   <g id="patch_213">
    <path clip-path="url(#p6a42ae5c8a)" d="M 340.150909 307.584 
L 341.419091 307.584 
L 341.419091 274.112955 
L 340.150909 274.112955 
z
" style="fill:#95ed64;opacity:0.95;"/>
   </g>
   <g id="patch_214">
    <path clip-path="url(#p6a42ae5c8a)" d="M 341.419091 307.584 
L 342.687273 307.584 
L 342.687273 274.647881 
L 341.419091 274.647881 
z
" style="fill:#95ed64;opacity:0.95;"/>
   </g>
   <g id="patch_215">
    <path clip-path="url(#p6a42ae5c8a)" d="M 342.687273 307.584 
L 343.955455 307.584 
L 343.955455 274.609672 
L 342.687273 274.609672 
z
" style="fill:#95ed64;opacity:0.95;"/>
   </g>
   <g id="patch_216">
    <path clip-path="url(#p6a42ae5c8a)" d="M 343.955455 307.584 
L 345.223636 307.584 
L 345.223636 274.418627 
L 343.955455 274.418627 
z
" style="fill:#95ed64;opacity:0.95;"/>
   </g>
   <g id="patch_217">
    <path clip-path="url(#p6a42ae5c8a)" d="M 345.223636 307.584 
L 346.491818 307.584 
L 346.491818 274.456836 
L 345.223636 274.456836 
z
" style="fill:#95ed64;opacity:0.95;"/>
   </g>
   <g id="patch_218">
    <path clip-path="url(#p6a42ae5c8a)" d="M 346.491818 307.584 
L 347.76 307.584 
L 347.76 274.112955 
L 346.491818 274.112955 
z
" style="fill:#95ed64;opacity:0.95;"/>
   </g>
   <g id="patch_219">
    <path clip-path="url(#p6a42ae5c8a)" d="M 347.76 307.584 
L 349.028182 307.584 
L 349.028182 275.221015 
L 347.76 275.221015 
z
" style="fill:#95ed64;opacity:0.95;"/>
   </g>
   <g id="patch_220">
    <path clip-path="url(#p6a42ae5c8a)" d="M 349.028182 307.584 
L 350.296364 307.584 
L 350.296364 275.068179 
L 349.028182 275.068179 
z
" style="fill:#95ed64;opacity:0.95;"/>
   </g>
   <g id="patch_221">
    <path clip-path="url(#p6a42ae5c8a)" d="M 350.296364 307.584 
L 351.564545 307.584 
L 351.564545 273.501612 
L 350.296364 273.501612 
z
" style="fill:#95ed64;opacity:0.95;"/>
   </g>
   <g id="patch_222">
    <path clip-path="url(#p6a42ae5c8a)" d="M 351.564545 307.584 
L 352.832727 307.584 
L 352.832727 273.616239 
L 351.564545 273.616239 
z
" style="fill:#95ed64;opacity:0.95;"/>
   </g>
   <g id="patch_223">
    <path clip-path="url(#p6a42ae5c8a)" d="M 352.832727 307.584 
L 354.100909 307.584 
L 354.100909 274.380418 
L 352.832727 274.380418 
z
" style="fill:#95ed64;opacity:0.95;"/>
   </g>
   <g id="patch_224">
    <path clip-path="url(#p6a42ae5c8a)" d="M 354.100909 307.584 
L 355.369091 307.584 
L 355.369091 274.380418 
L 354.100909 274.380418 
z
" style="fill:#95ed64;opacity:0.95;"/>
   </g>
   <g id="patch_225">
    <path clip-path="url(#p6a42ae5c8a)" d="M 355.369091 307.584 
L 356.637273 307.584 
L 356.637273 274.533254 
L 355.369091 274.533254 
z
" style="fill:#95ed64;opacity:0.95;"/>
   </g>
   <g id="patch_226">
    <path clip-path="url(#p6a42ae5c8a)" d="M 356.637273 307.584 
L 357.905455 307.584 
L 357.905455 277.551761 
L 356.637273 277.551761 
z
" style="fill:#95ed64;opacity:0.95;"/>
   </g>
   <g id="patch_227">
    <path clip-path="url(#p6a42ae5c8a)" d="M 357.905455 307.584 
L 359.173636 307.584 
L 359.173636 275.564896 
L 357.905455 275.564896 
z
" style="fill:#95ed64;opacity:0.95;"/>
   </g>
   <g id="patch_228">
    <path clip-path="url(#p6a42ae5c8a)" d="M 359.173636 307.584 
L 360.441818 307.584 
L 360.441818 278.774448 
L 359.173636 278.774448 
z
" style="fill:#95ed64;opacity:0.95;"/>
   </g>
   <g id="patch_229">
    <path clip-path="url(#p6a42ae5c8a)" d="M 360.441818 307.584 
L 361.71 307.584 
L 361.71 277.284299 
L 360.441818 277.284299 
z
" style="fill:#95ed64;opacity:0.95;"/>
   </g>
   <g id="patch_230">
    <path clip-path="url(#p6a42ae5c8a)" d="M 361.71 307.584 
L 362.978182 307.584 
L 362.978182 277.322507 
L 361.71 277.322507 
z
" style="fill:#95ed64;opacity:0.95;"/>
   </g>
   <g id="patch_231">
    <path clip-path="url(#p6a42ae5c8a)" d="M 362.978182 307.584 
L 364.246364 307.584 
L 364.246364 278.659821 
L 362.978182 278.659821 
z
" style="fill:#95ed64;opacity:0.95;"/>
   </g>
   <g id="patch_232">
    <path clip-path="url(#p6a42ae5c8a)" d="M 364.246364 307.584 
L 365.514545 307.584 
L 365.514545 279.385791 
L 364.246364 279.385791 
z
" style="fill:#95ed64;opacity:0.95;"/>
   </g>
   <g id="patch_233">
    <path clip-path="url(#p6a42ae5c8a)" d="M 365.514545 307.584 
L 366.782727 307.584 
L 366.782727 280.14997 
L 365.514545 280.14997 
z
" style="fill:#95ed64;opacity:0.95;"/>
   </g>
   <g id="patch_234">
    <path clip-path="url(#p6a42ae5c8a)" d="M 366.782727 307.584 
L 368.050909 307.584 
L 368.050909 279.538627 
L 366.782727 279.538627 
z
" style="fill:#95ed64;opacity:0.95;"/>
   </g>
   <g id="patch_235">
    <path clip-path="url(#p6a42ae5c8a)" d="M 368.050909 307.584 
L 369.319091 307.584 
L 369.319091 276.978627 
L 368.050909 276.978627 
z
" style="fill:#95ed64;opacity:0.95;"/>
   </g>
   <g id="patch_236">
    <path clip-path="url(#p6a42ae5c8a)" d="M 369.319091 307.584 
L 370.587273 307.584 
L 370.587273 274.495045 
L 369.319091 274.495045 
z
" style="fill:#95ed64;opacity:0.95;"/>
   </g>
   <g id="patch_237">
    <path clip-path="url(#p6a42ae5c8a)" d="M 370.587273 307.584 
L 371.855455 307.584 
L 371.855455 271.056239 
L 370.587273 271.056239 
z
" style="fill:#95ed64;opacity:0.95;"/>
   </g>
   <g id="patch_238">
    <path clip-path="url(#p6a42ae5c8a)" d="M 371.855455 307.584 
L 373.123636 307.584 
L 373.123636 270.483104 
L 371.855455 270.483104 
z
" style="fill:#95ed64;opacity:0.95;"/>
   </g>
   <g id="patch_239">
    <path clip-path="url(#p6a42ae5c8a)" d="M 373.123636 307.584 
L 374.391818 307.584 
L 374.391818 269.145791 
L 373.123636 269.145791 
z
" style="fill:#95ed64;opacity:0.95;"/>
   </g>
   <g id="patch_240">
    <path clip-path="url(#p6a42ae5c8a)" d="M 374.391818 307.584 
L 375.66 307.584 
L 375.66 270.253851 
L 374.391818 270.253851 
z
" style="fill:#95ed64;opacity:0.95;"/>
   </g>
   <g id="patch_241">
    <path clip-path="url(#p6a42ae5c8a)" d="M 375.66 307.584 
L 376.928182 307.584 
L 376.928182 266.776836 
L 375.66 266.776836 
z
" style="fill:#95ed64;opacity:0.95;"/>
   </g>
   <g id="patch_242">
    <path clip-path="url(#p6a42ae5c8a)" d="M 376.928182 307.584 
L 378.196364 307.584 
L 378.196364 263.872955 
L 376.928182 263.872955 
z
" style="fill:#95ed64;opacity:0.95;"/>
   </g>
   <g id="patch_243">
    <path clip-path="url(#p6a42ae5c8a)" d="M 378.196364 307.584 
L 379.464545 307.584 
L 379.464545 258.905791 
L 378.196364 258.905791 
z
" style="fill:#95ed64;opacity:0.95;"/>
   </g>
   <g id="patch_244">
    <path clip-path="url(#p6a42ae5c8a)" d="M 379.464545 307.584 
L 380.732727 307.584 
L 380.732727 249.468179 
L 379.464545 249.468179 
z
" style="fill:#95ed64;opacity:0.95;"/>
   </g>
   <g id="patch_245">
    <path clip-path="url(#p6a42ae5c8a)" d="M 380.732727 307.584 
L 382.000909 307.584 
L 382.000909 233.917134 
L 380.732727 233.917134 
z
" style="fill:#95ed64;opacity:0.95;"/>
   </g>
   <g id="patch_246">
    <path clip-path="url(#p6a42ae5c8a)" d="M 382.000909 307.584 
L 383.269091 307.584 
L 383.269091 228.147582 
L 382.000909 228.147582 
z
" style="fill:#95ed64;opacity:0.95;"/>
   </g>
   <g id="patch_247">
    <path clip-path="url(#p6a42ae5c8a)" d="M 383.269091 307.584 
L 384.537273 307.584 
L 384.537273 224.288478 
L 383.269091 224.288478 
z
" style="fill:#95ed64;opacity:0.95;"/>
   </g>
   <g id="patch_248">
    <path clip-path="url(#p6a42ae5c8a)" d="M 384.537273 307.584 
L 385.805455 307.584 
L 385.805455 233.114746 
L 384.537273 233.114746 
z
" style="fill:#95ed64;opacity:0.95;"/>
   </g>
   <g id="patch_249">
    <path clip-path="url(#p6a42ae5c8a)" d="M 385.805455 307.584 
L 387.073636 307.584 
L 387.073636 283.932657 
L 385.805455 283.932657 
z
" style="fill:#95ed64;opacity:0.95;"/>
   </g>
   <g id="patch_250">
    <path clip-path="url(#p6a42ae5c8a)" d="M 387.073636 307.584 
L 388.341818 307.584 
L 388.341818 295.127881 
L 387.073636 295.127881 
z
" style="fill:#95ed64;opacity:0.95;"/>
   </g>
   <g id="patch_251">
    <path clip-path="url(#p6a42ae5c8a)" d="M 388.341818 307.584 
L 389.61 307.584 
L 389.61 301.279522 
L 388.341818 301.279522 
z
" style="fill:#95ed64;opacity:0.95;"/>
   </g>
   <g id="patch_252">
    <path clip-path="url(#p6a42ae5c8a)" d="M 389.61 307.584 
L 390.878182 307.584 
L 390.878182 304.068776 
L 389.61 304.068776 
z
" style="fill:#95ed64;opacity:0.95;"/>
   </g>
   <g id="patch_253">
    <path clip-path="url(#p6a42ae5c8a)" d="M 390.878182 307.584 
L 392.146364 307.584 
L 392.146364 305.176836 
L 390.878182 305.176836 
z
" style="fill:#95ed64;opacity:0.95;"/>
   </g>
   <g id="patch_254">
    <path clip-path="url(#p6a42ae5c8a)" d="M 392.146364 307.584 
L 393.414545 307.584 
L 393.414545 305.520716 
L 392.146364 305.520716 
z
" style="fill:#95ed64;opacity:0.95;"/>
   </g>
   <g id="patch_255">
    <path clip-path="url(#p6a42ae5c8a)" d="M 393.414545 307.584 
L 394.682727 307.584 
L 394.682727 306.13206 
L 393.414545 306.13206 
z
" style="fill:#95ed64;opacity:0.95;"/>
   </g>
   <g id="patch_256">
    <path clip-path="url(#p6a42ae5c8a)" d="M 394.682727 307.584 
L 395.950909 307.584 
L 395.950909 306.284896 
L 394.682727 306.284896 
z
" style="fill:#95ed64;opacity:0.95;"/>
   </g>
   <g id="patch_257">
    <path clip-path="url(#p6a42ae5c8a)" d="M 395.950909 307.584 
L 397.219091 307.584 
L 397.219091 306.819821 
L 395.950909 306.819821 
z
" style="fill:#95ed64;opacity:0.95;"/>
   </g>
   <g id="patch_258">
    <path clip-path="url(#p6a42ae5c8a)" d="M 397.219091 307.584 
L 398.487273 307.584 
L 398.487273 305.215045 
L 397.219091 305.215045 
z
" style="fill:#95ed64;opacity:0.95;"/>
   </g>
   <g id="matplotlib.axis_1">
    <g id="xtick_1">
     <g id="line2d_1">
      <defs>
       <path d="M 0 0 
L 0 3.5 
" id="m88338563ec" style="stroke:#000000;stroke-width:0.8;"/>
      </defs>
      <g>
       <use style="stroke:#000000;stroke-width:0.8;" x="155.314652" xlink:href="#m88338563ec" y="307.584"/>
      </g>
     </g>
     <g id="text_1">
      <!-- 64 -->
      <defs>
       <path d="M 33.015625 40.375 
Q 26.375 40.375 22.484375 35.828125 
Q 18.609375 31.296875 18.609375 23.390625 
Q 18.609375 15.53125 22.484375 10.953125 
Q 26.375 6.390625 33.015625 6.390625 
Q 39.65625 6.390625 43.53125 10.953125 
Q 47.40625 15.53125 47.40625 23.390625 
Q 47.40625 31.296875 43.53125 35.828125 
Q 39.65625 40.375 33.015625 40.375 
z
M 52.59375 71.296875 
L 52.59375 62.3125 
Q 48.875 64.0625 45.09375 64.984375 
Q 41.3125 65.921875 37.59375 65.921875 
Q 27.828125 65.921875 22.671875 59.328125 
Q 17.53125 52.734375 16.796875 39.40625 
Q 19.671875 43.65625 24.015625 45.921875 
Q 28.375 48.1875 33.59375 48.1875 
Q 44.578125 48.1875 50.953125 41.515625 
Q 57.328125 34.859375 57.328125 23.390625 
Q 57.328125 12.15625 50.6875 5.359375 
Q 44.046875 -1.421875 33.015625 -1.421875 
Q 20.359375 -1.421875 13.671875 8.265625 
Q 6.984375 17.96875 6.984375 36.375 
Q 6.984375 53.65625 15.1875 63.9375 
Q 23.390625 74.21875 37.203125 74.21875 
Q 40.921875 74.21875 44.703125 73.484375 
Q 48.484375 72.75 52.59375 71.296875 
z
" id="DejaVuSans-54"/>
       <path d="M 37.796875 64.3125 
L 12.890625 25.390625 
L 37.796875 25.390625 
z
M 35.203125 72.90625 
L 47.609375 72.90625 
L 47.609375 25.390625 
L 58.015625 25.390625 
L 58.015625 17.1875 
L 47.609375 17.1875 
L 47.609375 0 
L 37.796875 0 
L 37.796875 17.1875 
L 4.890625 17.1875 
L 4.890625 26.703125 
z
" id="DejaVuSans-52"/>
      </defs>
      <g transform="translate(148.952152 322.182437)scale(0.1 -0.1)">
       <use xlink:href="#DejaVuSans-54"/>
       <use x="63.623047" xlink:href="#DejaVuSans-52"/>
      </g>
     </g>
    </g>
    <g id="xtick_2">
     <g id="line2d_2">
      <g>
       <use style="stroke:#000000;stroke-width:0.8;" x="236.796578" xlink:href="#m88338563ec" y="307.584"/>
      </g>
     </g>
     <g id="text_2">
      <!-- 128 -->
      <defs>
       <path d="M 12.40625 8.296875 
L 28.515625 8.296875 
L 28.515625 63.921875 
L 10.984375 60.40625 
L 10.984375 69.390625 
L 28.421875 72.90625 
L 38.28125 72.90625 
L 38.28125 8.296875 
L 54.390625 8.296875 
L 54.390625 0 
L 12.40625 0 
z
" id="DejaVuSans-49"/>
       <path d="M 19.1875 8.296875 
L 53.609375 8.296875 
L 53.609375 0 
L 7.328125 0 
L 7.328125 8.296875 
Q 12.9375 14.109375 22.625 23.890625 
Q 32.328125 33.6875 34.8125 36.53125 
Q 39.546875 41.84375 41.421875 45.53125 
Q 43.3125 49.21875 43.3125 52.78125 
Q 43.3125 58.59375 39.234375 62.25 
Q 35.15625 65.921875 28.609375 65.921875 
Q 23.96875 65.921875 18.8125 64.3125 
Q 13.671875 62.703125 7.8125 59.421875 
L 7.8125 69.390625 
Q 13.765625 71.78125 18.9375 73 
Q 24.125 74.21875 28.421875 74.21875 
Q 39.75 74.21875 46.484375 68.546875 
Q 53.21875 62.890625 53.21875 53.421875 
Q 53.21875 48.921875 51.53125 44.890625 
Q 49.859375 40.875 45.40625 35.40625 
Q 44.1875 33.984375 37.640625 27.21875 
Q 31.109375 20.453125 19.1875 8.296875 
z
" id="DejaVuSans-50"/>
       <path d="M 31.78125 34.625 
Q 24.75 34.625 20.71875 30.859375 
Q 16.703125 27.09375 16.703125 20.515625 
Q 16.703125 13.921875 20.71875 10.15625 
Q 24.75 6.390625 31.78125 6.390625 
Q 38.8125 6.390625 42.859375 10.171875 
Q 46.921875 13.96875 46.921875 20.515625 
Q 46.921875 27.09375 42.890625 30.859375 
Q 38.875 34.625 31.78125 34.625 
z
M 21.921875 38.8125 
Q 15.578125 40.375 12.03125 44.71875 
Q 8.5 49.078125 8.5 55.328125 
Q 8.5 64.0625 14.71875 69.140625 
Q 20.953125 74.21875 31.78125 74.21875 
Q 42.671875 74.21875 48.875 69.140625 
Q 55.078125 64.0625 55.078125 55.328125 
Q 55.078125 49.078125 51.53125 44.71875 
Q 48 40.375 41.703125 38.8125 
Q 48.828125 37.15625 52.796875 32.3125 
Q 56.78125 27.484375 56.78125 20.515625 
Q 56.78125 9.90625 50.3125 4.234375 
Q 43.84375 -1.421875 31.78125 -1.421875 
Q 19.734375 -1.421875 13.25 4.234375 
Q 6.78125 9.90625 6.78125 20.515625 
Q 6.78125 27.484375 10.78125 32.3125 
Q 14.796875 37.15625 21.921875 38.8125 
z
M 18.3125 54.390625 
Q 18.3125 48.734375 21.84375 45.5625 
Q 25.390625 42.390625 31.78125 42.390625 
Q 38.140625 42.390625 41.71875 45.5625 
Q 45.3125 48.734375 45.3125 54.390625 
Q 45.3125 60.0625 41.71875 63.234375 
Q 38.140625 66.40625 31.78125 66.40625 
Q 25.390625 66.40625 21.84375 63.234375 
Q 18.3125 60.0625 18.3125 54.390625 
z
" id="DejaVuSans-56"/>
      </defs>
      <g transform="translate(227.252828 322.182437)scale(0.1 -0.1)">
       <use xlink:href="#DejaVuSans-49"/>
       <use x="63.623047" xlink:href="#DejaVuSans-50"/>
       <use x="127.246094" xlink:href="#DejaVuSans-56"/>
      </g>
     </g>
    </g>
    <g id="xtick_3">
     <g id="line2d_3">
      <g>
       <use style="stroke:#000000;stroke-width:0.8;" x="318.278503" xlink:href="#m88338563ec" y="307.584"/>
      </g>
     </g>
     <g id="text_3">
      <!-- 192 -->
      <defs>
       <path d="M 10.984375 1.515625 
L 10.984375 10.5 
Q 14.703125 8.734375 18.5 7.8125 
Q 22.3125 6.890625 25.984375 6.890625 
Q 35.75 6.890625 40.890625 13.453125 
Q 46.046875 20.015625 46.78125 33.40625 
Q 43.953125 29.203125 39.59375 26.953125 
Q 35.25 24.703125 29.984375 24.703125 
Q 19.046875 24.703125 12.671875 31.3125 
Q 6.296875 37.9375 6.296875 49.421875 
Q 6.296875 60.640625 12.9375 67.421875 
Q 19.578125 74.21875 30.609375 74.21875 
Q 43.265625 74.21875 49.921875 64.515625 
Q 56.59375 54.828125 56.59375 36.375 
Q 56.59375 19.140625 48.40625 8.859375 
Q 40.234375 -1.421875 26.421875 -1.421875 
Q 22.703125 -1.421875 18.890625 -0.6875 
Q 15.09375 0.046875 10.984375 1.515625 
z
M 30.609375 32.421875 
Q 37.25 32.421875 41.125 36.953125 
Q 45.015625 41.5 45.015625 49.421875 
Q 45.015625 57.28125 41.125 61.84375 
Q 37.25 66.40625 30.609375 66.40625 
Q 23.96875 66.40625 20.09375 61.84375 
Q 16.21875 57.28125 16.21875 49.421875 
Q 16.21875 41.5 20.09375 36.953125 
Q 23.96875 32.421875 30.609375 32.421875 
z
" id="DejaVuSans-57"/>
      </defs>
      <g transform="translate(308.734753 322.182437)scale(0.1 -0.1)">
       <use xlink:href="#DejaVuSans-49"/>
       <use x="63.623047" xlink:href="#DejaVuSans-57"/>
       <use x="127.246094" xlink:href="#DejaVuSans-50"/>
      </g>
     </g>
    </g>
    <g id="xtick_4">
     <g id="line2d_4">
      <g>
       <use style="stroke:#000000;stroke-width:0.8;" x="398.487273" xlink:href="#m88338563ec" y="307.584"/>
      </g>
     </g>
     <g id="text_4">
      <!-- 255 -->
      <defs>
       <path d="M 10.796875 72.90625 
L 49.515625 72.90625 
L 49.515625 64.59375 
L 19.828125 64.59375 
L 19.828125 46.734375 
Q 21.96875 47.46875 24.109375 47.828125 
Q 26.265625 48.1875 28.421875 48.1875 
Q 40.625 48.1875 47.75 41.5 
Q 54.890625 34.8125 54.890625 23.390625 
Q 54.890625 11.625 47.5625 5.09375 
Q 40.234375 -1.421875 26.90625 -1.421875 
Q 22.3125 -1.421875 17.546875 -0.640625 
Q 12.796875 0.140625 7.71875 1.703125 
L 7.71875 11.625 
Q 12.109375 9.234375 16.796875 8.0625 
Q 21.484375 6.890625 26.703125 6.890625 
Q 35.15625 6.890625 40.078125 11.328125 
Q 45.015625 15.765625 45.015625 23.390625 
Q 45.015625 31 40.078125 35.4375 
Q 35.15625 39.890625 26.703125 39.890625 
Q 22.75 39.890625 18.8125 39.015625 
Q 14.890625 38.140625 10.796875 36.28125 
z
" id="DejaVuSans-53"/>
      </defs>
      <g transform="translate(388.943523 322.182437)scale(0.1 -0.1)">
       <use xlink:href="#DejaVuSans-50"/>
       <use x="63.623047" xlink:href="#DejaVuSans-53"/>
       <use x="127.246094" xlink:href="#DejaVuSans-53"/>
      </g>
     </g>
    </g>
   </g>
   <g id="matplotlib.axis_2">
    <g id="ytick_1">
     <g id="line2d_5">
      <defs>
       <path d="M 0 0 
L -3.5 0 
" id="m389acadef4" style="stroke:#000000;stroke-width:0.8;"/>
      </defs>
      <g>
       <use style="stroke:#000000;stroke-width:0.8;" x="57.6" xlink:href="#m389acadef4" y="307.584"/>
      </g>
     </g>
     <g id="text_5">
      <!-- 0 -->
      <defs>
       <path d="M 31.78125 66.40625 
Q 24.171875 66.40625 20.328125 58.90625 
Q 16.5 51.421875 16.5 36.375 
Q 16.5 21.390625 20.328125 13.890625 
Q 24.171875 6.390625 31.78125 6.390625 
Q 39.453125 6.390625 43.28125 13.890625 
Q 47.125 21.390625 47.125 36.375 
Q 47.125 51.421875 43.28125 58.90625 
Q 39.453125 66.40625 31.78125 66.40625 
z
M 31.78125 74.21875 
Q 44.046875 74.21875 50.515625 64.515625 
Q 56.984375 54.828125 56.984375 36.375 
Q 56.984375 17.96875 50.515625 8.265625 
Q 44.046875 -1.421875 31.78125 -1.421875 
Q 19.53125 -1.421875 13.0625 8.265625 
Q 6.59375 17.96875 6.59375 36.375 
Q 6.59375 54.828125 13.0625 64.515625 
Q 19.53125 74.21875 31.78125 74.21875 
z
" id="DejaVuSans-48"/>
      </defs>
      <g transform="translate(44.2375 311.383219)scale(0.1 -0.1)">
       <use xlink:href="#DejaVuSans-48"/>
      </g>
     </g>
    </g>
    <g id="ytick_2">
     <g id="line2d_6">
      <g>
       <use style="stroke:#000000;stroke-width:0.8;" x="57.6" xlink:href="#m389acadef4" y="269.375045"/>
      </g>
     </g>
     <g id="text_6">
      <!-- 1000 -->
      <g transform="translate(25.15 273.174264)scale(0.1 -0.1)">
       <use xlink:href="#DejaVuSans-49"/>
       <use x="63.623047" xlink:href="#DejaVuSans-48"/>
       <use x="127.246094" xlink:href="#DejaVuSans-48"/>
       <use x="190.869141" xlink:href="#DejaVuSans-48"/>
      </g>
     </g>
    </g>
    <g id="ytick_3">
     <g id="line2d_7">
      <g>
       <use style="stroke:#000000;stroke-width:0.8;" x="57.6" xlink:href="#m389acadef4" y="231.16609"/>
      </g>
     </g>
     <g id="text_7">
      <!-- 2000 -->
      <g transform="translate(25.15 234.965308)scale(0.1 -0.1)">
       <use xlink:href="#DejaVuSans-50"/>
       <use x="63.623047" xlink:href="#DejaVuSans-48"/>
       <use x="127.246094" xlink:href="#DejaVuSans-48"/>
       <use x="190.869141" xlink:href="#DejaVuSans-48"/>
      </g>
     </g>
    </g>
    <g id="ytick_4">
     <g id="line2d_8">
      <g>
       <use style="stroke:#000000;stroke-width:0.8;" x="57.6" xlink:href="#m389acadef4" y="192.957134"/>
      </g>
     </g>
     <g id="text_8">
      <!-- 3000 -->
      <defs>
       <path d="M 40.578125 39.3125 
Q 47.65625 37.796875 51.625 33 
Q 55.609375 28.21875 55.609375 21.1875 
Q 55.609375 10.40625 48.1875 4.484375 
Q 40.765625 -1.421875 27.09375 -1.421875 
Q 22.515625 -1.421875 17.65625 -0.515625 
Q 12.796875 0.390625 7.625 2.203125 
L 7.625 11.71875 
Q 11.71875 9.328125 16.59375 8.109375 
Q 21.484375 6.890625 26.8125 6.890625 
Q 36.078125 6.890625 40.9375 10.546875 
Q 45.796875 14.203125 45.796875 21.1875 
Q 45.796875 27.640625 41.28125 31.265625 
Q 36.765625 34.90625 28.71875 34.90625 
L 20.21875 34.90625 
L 20.21875 43.015625 
L 29.109375 43.015625 
Q 36.375 43.015625 40.234375 45.921875 
Q 44.09375 48.828125 44.09375 54.296875 
Q 44.09375 59.90625 40.109375 62.90625 
Q 36.140625 65.921875 28.71875 65.921875 
Q 24.65625 65.921875 20.015625 65.03125 
Q 15.375 64.15625 9.8125 62.3125 
L 9.8125 71.09375 
Q 15.4375 72.65625 20.34375 73.4375 
Q 25.25 74.21875 29.59375 74.21875 
Q 40.828125 74.21875 47.359375 69.109375 
Q 53.90625 64.015625 53.90625 55.328125 
Q 53.90625 49.265625 50.4375 45.09375 
Q 46.96875 40.921875 40.578125 39.3125 
z
" id="DejaVuSans-51"/>
      </defs>
      <g transform="translate(25.15 196.756353)scale(0.1 -0.1)">
       <use xlink:href="#DejaVuSans-51"/>
       <use x="63.623047" xlink:href="#DejaVuSans-48"/>
       <use x="127.246094" xlink:href="#DejaVuSans-48"/>
       <use x="190.869141" xlink:href="#DejaVuSans-48"/>
      </g>
     </g>
    </g>
    <g id="ytick_5">
     <g id="line2d_9">
      <g>
       <use style="stroke:#000000;stroke-width:0.8;" x="57.6" xlink:href="#m389acadef4" y="154.748179"/>
      </g>
     </g>
     <g id="text_9">
      <!-- 4000 -->
      <g transform="translate(25.15 158.547398)scale(0.1 -0.1)">
       <use xlink:href="#DejaVuSans-52"/>
       <use x="63.623047" xlink:href="#DejaVuSans-48"/>
       <use x="127.246094" xlink:href="#DejaVuSans-48"/>
       <use x="190.869141" xlink:href="#DejaVuSans-48"/>
      </g>
     </g>
    </g>
    <g id="ytick_6">
     <g id="line2d_10">
      <g>
       <use style="stroke:#000000;stroke-width:0.8;" x="57.6" xlink:href="#m389acadef4" y="116.539224"/>
      </g>
     </g>
     <g id="text_10">
      <!-- 5000 -->
      <g transform="translate(25.15 120.338443)scale(0.1 -0.1)">
       <use xlink:href="#DejaVuSans-53"/>
       <use x="63.623047" xlink:href="#DejaVuSans-48"/>
       <use x="127.246094" xlink:href="#DejaVuSans-48"/>
       <use x="190.869141" xlink:href="#DejaVuSans-48"/>
      </g>
     </g>
    </g>
    <g id="ytick_7">
     <g id="line2d_11">
      <g>
       <use style="stroke:#000000;stroke-width:0.8;" x="57.6" xlink:href="#m389acadef4" y="78.330269"/>
      </g>
     </g>
     <g id="text_11">
      <!-- 6000 -->
      <g transform="translate(25.15 82.129487)scale(0.1 -0.1)">
       <use xlink:href="#DejaVuSans-54"/>
       <use x="63.623047" xlink:href="#DejaVuSans-48"/>
       <use x="127.246094" xlink:href="#DejaVuSans-48"/>
       <use x="190.869141" xlink:href="#DejaVuSans-48"/>
      </g>
     </g>
    </g>
   </g>
   <g id="patch_259">
    <path d="M 57.6 307.584 
L 57.6 41.472 
" style="fill:none;stroke:#000000;stroke-linecap:square;stroke-linejoin:miter;stroke-width:0.8;"/>
   </g>
   <g id="patch_260">
    <path d="M 414.72 307.584 
L 414.72 41.472 
" style="fill:none;stroke:#000000;stroke-linecap:square;stroke-linejoin:miter;stroke-width:0.8;"/>
   </g>
   <g id="patch_261">
    <path d="M 57.6 307.584 
L 414.72 307.584 
" style="fill:none;stroke:#000000;stroke-linecap:square;stroke-linejoin:miter;stroke-width:0.8;"/>
   </g>
   <g id="patch_262">
    <path d="M 57.6 41.472 
L 414.72 41.472 
" style="fill:none;stroke:#000000;stroke-linecap:square;stroke-linejoin:miter;stroke-width:0.8;"/>
   </g>
  </g>
 </g>
 <defs>
  <clipPath id="p6a42ae5c8a">
   <rect height="266.112" width="357.12" x="57.6" y="41.472"/>
  </clipPath>
 </defs>
</svg>
