<?xml version="1.0" encoding="utf-8" standalone="no"?>
<!DOCTYPE svg PUBLIC "-//W3C//DTD SVG 1.1//EN"
  "http://www.w3.org/Graphics/SVG/1.1/DTD/svg11.dtd">
<!-- Created with matplotlib (https://matplotlib.org/) -->
<svg height="345.6pt" version="1.1" viewBox="0 0 460.8 345.6" width="460.8pt" xmlns="http://www.w3.org/2000/svg" xmlns:xlink="http://www.w3.org/1999/xlink">
 <defs>
  <style type="text/css">
*{stroke-linecap:butt;stroke-linejoin:round;}
  </style>
 </defs>
 <g id="figure_1">
  <g id="patch_1">
   <path d="M 0 345.6 
L 460.8 345.6 
L 460.8 0 
L 0 0 
z
" style="fill:#ffffff;"/>
  </g>
  <g id="axes_1">
   <g id="patch_2">
    <path d="M 57.6 307.584 
L 414.72 307.584 
L 414.72 41.472 
L 57.6 41.472 
z
" style="fill:#ffffff;"/>
   </g>
   <g id="patch_3">
    <path clip-path="url(#p6e7612dfc6)" d="M 73.832727 307.584 
L 75.100909 307.584 
L 75.100909 306.84788 
L 73.832727 306.84788 
z
" style="fill:#ff4d4d;opacity:0.95;"/>
   </g>
   <g id="patch_4">
    <path clip-path="url(#p6e7612dfc6)" d="M 75.100909 307.584 
L 76.369091 307.584 
L 76.369091 307.430642 
L 75.100909 307.430642 
z
" style="fill:#ff4d4d;opacity:0.95;"/>
   </g>
   <g id="patch_5">
    <path clip-path="url(#p6e7612dfc6)" d="M 76.369091 307.584 
L 77.637273 307.584 
L 77.637273 307.461313 
L 76.369091 307.461313 
z
" style="fill:#ff4d4d;opacity:0.95;"/>
   </g>
   <g id="patch_6">
    <path clip-path="url(#p6e7612dfc6)" d="M 77.637273 307.584 
L 78.905455 307.584 
L 78.905455 307.307955 
L 77.637273 307.307955 
z
" style="fill:#ff4d4d;opacity:0.95;"/>
   </g>
   <g id="patch_7">
    <path clip-path="url(#p6e7612dfc6)" d="M 78.905455 307.584 
L 80.173636 307.584 
L 80.173636 307.277283 
L 78.905455 307.277283 
z
" style="fill:#ff4d4d;opacity:0.95;"/>
   </g>
   <g id="patch_8">
    <path clip-path="url(#p6e7612dfc6)" d="M 80.173636 307.584 
L 81.441818 307.584 
L 81.441818 307.338627 
L 80.173636 307.338627 
z
" style="fill:#ff4d4d;opacity:0.95;"/>
   </g>
   <g id="patch_9">
    <path clip-path="url(#p6e7612dfc6)" d="M 81.441818 307.584 
L 82.71 307.584 
L 82.71 307.338627 
L 81.441818 307.338627 
z
" style="fill:#ff4d4d;opacity:0.95;"/>
   </g>
   <g id="patch_10">
    <path clip-path="url(#p6e7612dfc6)" d="M 82.71 307.584 
L 83.978182 307.584 
L 83.978182 307.185268 
L 82.71 307.185268 
z
" style="fill:#ff4d4d;opacity:0.95;"/>
   </g>
   <g id="patch_11">
    <path clip-path="url(#p6e7612dfc6)" d="M 83.978182 307.584 
L 85.246364 307.584 
L 85.246364 307.154597 
L 83.978182 307.154597 
z
" style="fill:#ff4d4d;opacity:0.95;"/>
   </g>
   <g id="patch_12">
    <path clip-path="url(#p6e7612dfc6)" d="M 85.246364 307.584 
L 86.514545 307.584 
L 86.514545 306.878552 
L 85.246364 306.878552 
z
" style="fill:#ff4d4d;opacity:0.95;"/>
   </g>
   <g id="patch_13">
    <path clip-path="url(#p6e7612dfc6)" d="M 86.514545 307.584 
L 87.782727 307.584 
L 87.782727 307.154597 
L 86.514545 307.154597 
z
" style="fill:#ff4d4d;opacity:0.95;"/>
   </g>
   <g id="patch_14">
    <path clip-path="url(#p6e7612dfc6)" d="M 87.782727 307.584 
L 89.050909 307.584 
L 89.050909 307.123925 
L 87.782727 307.123925 
z
" style="fill:#ff4d4d;opacity:0.95;"/>
   </g>
   <g id="patch_15">
    <path clip-path="url(#p6e7612dfc6)" d="M 89.050909 307.584 
L 90.319091 307.584 
L 90.319091 306.694522 
L 89.050909 306.694522 
z
" style="fill:#ff4d4d;opacity:0.95;"/>
   </g>
   <g id="patch_16">
    <path clip-path="url(#p6e7612dfc6)" d="M 90.319091 307.584 
L 91.587273 307.584 
L 91.587273 306.786537 
L 90.319091 306.786537 
z
" style="fill:#ff4d4d;opacity:0.95;"/>
   </g>
   <g id="patch_17">
    <path clip-path="url(#p6e7612dfc6)" d="M 91.587273 307.584 
L 92.855455 307.584 
L 92.855455 306.571835 
L 91.587273 306.571835 
z
" style="fill:#ff4d4d;opacity:0.95;"/>
   </g>
   <g id="patch_18">
    <path clip-path="url(#p6e7612dfc6)" d="M 92.855455 307.584 
L 94.123636 307.584 
L 94.123636 306.510492 
L 92.855455 306.510492 
z
" style="fill:#ff4d4d;opacity:0.95;"/>
   </g>
   <g id="patch_19">
    <path clip-path="url(#p6e7612dfc6)" d="M 94.123636 307.584 
L 95.391818 307.584 
L 95.391818 306.173103 
L 94.123636 306.173103 
z
" style="fill:#ff4d4d;opacity:0.95;"/>
   </g>
   <g id="patch_20">
    <path clip-path="url(#p6e7612dfc6)" d="M 95.391818 307.584 
L 96.66 307.584 
L 96.66 305.866387 
L 95.391818 305.866387 
z
" style="fill:#ff4d4d;opacity:0.95;"/>
   </g>
   <g id="patch_21">
    <path clip-path="url(#p6e7612dfc6)" d="M 96.66 307.584 
L 97.928182 307.584 
L 97.928182 305.805043 
L 96.66 305.805043 
z
" style="fill:#ff4d4d;opacity:0.95;"/>
   </g>
   <g id="patch_22">
    <path clip-path="url(#p6e7612dfc6)" d="M 97.928182 307.584 
L 99.196364 307.584 
L 99.196364 305.528998 
L 97.928182 305.528998 
z
" style="fill:#ff4d4d;opacity:0.95;"/>
   </g>
   <g id="patch_23">
    <path clip-path="url(#p6e7612dfc6)" d="M 99.196364 307.584 
L 100.464545 307.584 
L 100.464545 305.038251 
L 99.196364 305.038251 
z
" style="fill:#ff4d4d;opacity:0.95;"/>
   </g>
   <g id="patch_24">
    <path clip-path="url(#p6e7612dfc6)" d="M 100.464545 307.584 
L 101.732727 307.584 
L 101.732727 304.946236 
L 100.464545 304.946236 
z
" style="fill:#ff4d4d;opacity:0.95;"/>
   </g>
   <g id="patch_25">
    <path clip-path="url(#p6e7612dfc6)" d="M 101.732727 307.584 
L 103.000909 307.584 
L 103.000909 304.516833 
L 101.732727 304.516833 
z
" style="fill:#ff4d4d;opacity:0.95;"/>
   </g>
   <g id="patch_26">
    <path clip-path="url(#p6e7612dfc6)" d="M 103.000909 307.584 
L 104.269091 307.584 
L 104.269091 303.53534 
L 103.000909 303.53534 
z
" style="fill:#ff4d4d;opacity:0.95;"/>
   </g>
   <g id="patch_27">
    <path clip-path="url(#p6e7612dfc6)" d="M 104.269091 307.584 
L 105.537273 307.584 
L 105.537273 302.277801 
L 104.269091 302.277801 
z
" style="fill:#ff4d4d;opacity:0.95;"/>
   </g>
   <g id="patch_28">
    <path clip-path="url(#p6e7612dfc6)" d="M 105.537273 307.584 
L 106.805455 307.584 
L 106.805455 301.173621 
L 105.537273 301.173621 
z
" style="fill:#ff4d4d;opacity:0.95;"/>
   </g>
   <g id="patch_29">
    <path clip-path="url(#p6e7612dfc6)" d="M 106.805455 307.584 
L 108.073636 307.584 
L 108.073636 301.32698 
L 106.805455 301.32698 
z
" style="fill:#ff4d4d;opacity:0.95;"/>
   </g>
   <g id="patch_30">
    <path clip-path="url(#p6e7612dfc6)" d="M 108.073636 307.584 
L 109.341818 307.584 
L 109.341818 299.578694 
L 108.073636 299.578694 
z
" style="fill:#ff4d4d;opacity:0.95;"/>
   </g>
   <g id="patch_31">
    <path clip-path="url(#p6e7612dfc6)" d="M 109.341818 307.584 
L 110.61 307.584 
L 110.61 297.063618 
L 109.341818 297.063618 
z
" style="fill:#ff4d4d;opacity:0.95;"/>
   </g>
   <g id="patch_32">
    <path clip-path="url(#p6e7612dfc6)" d="M 110.61 307.584 
L 111.878182 307.584 
L 111.878182 294.211152 
L 110.61 294.211152 
z
" style="fill:#ff4d4d;opacity:0.95;"/>
   </g>
   <g id="patch_33">
    <path clip-path="url(#p6e7612dfc6)" d="M 111.878182 307.584 
L 113.146364 307.584 
L 113.146364 287.831445 
L 111.878182 287.831445 
z
" style="fill:#ff4d4d;opacity:0.95;"/>
   </g>
   <g id="patch_34">
    <path clip-path="url(#p6e7612dfc6)" d="M 113.146364 307.584 
L 114.414545 307.584 
L 114.414545 275.624121 
L 113.146364 275.624121 
z
" style="fill:#ff4d4d;opacity:0.95;"/>
   </g>
   <g id="patch_35">
    <path clip-path="url(#p6e7612dfc6)" d="M 114.414545 307.584 
L 115.682727 307.584 
L 115.682727 268.999041 
L 114.414545 268.999041 
z
" style="fill:#ff4d4d;opacity:0.95;"/>
   </g>
   <g id="patch_36">
    <path clip-path="url(#p6e7612dfc6)" d="M 115.682727 307.584 
L 116.950909 307.584 
L 116.950909 264.58232 
L 115.682727 264.58232 
z
" style="fill:#ff4d4d;opacity:0.95;"/>
   </g>
   <g id="patch_37">
    <path clip-path="url(#p6e7612dfc6)" d="M 116.950909 307.584 
L 118.219091 307.584 
L 118.219091 260.779033 
L 116.950909 260.779033 
z
" style="fill:#ff4d4d;opacity:0.95;"/>
   </g>
   <g id="patch_38">
    <path clip-path="url(#p6e7612dfc6)" d="M 118.219091 307.584 
L 119.487273 307.584 
L 119.487273 262.343288 
L 118.219091 262.343288 
z
" style="fill:#ff4d4d;opacity:0.95;"/>
   </g>
   <g id="patch_39">
    <path clip-path="url(#p6e7612dfc6)" d="M 119.487273 307.584 
L 120.755455 307.584 
L 120.755455 259.460152 
L 119.487273 259.460152 
z
" style="fill:#ff4d4d;opacity:0.95;"/>
   </g>
   <g id="patch_40">
    <path clip-path="url(#p6e7612dfc6)" d="M 120.755455 307.584 
L 122.023636 307.584 
L 122.023636 255.687536 
L 120.755455 255.687536 
z
" style="fill:#ff4d4d;opacity:0.95;"/>
   </g>
   <g id="patch_41">
    <path clip-path="url(#p6e7612dfc6)" d="M 122.023636 307.584 
L 123.291818 307.584 
L 123.291818 251.362831 
L 122.023636 251.362831 
z
" style="fill:#ff4d4d;opacity:0.95;"/>
   </g>
   <g id="patch_42">
    <path clip-path="url(#p6e7612dfc6)" d="M 123.291818 307.584 
L 124.56 307.584 
L 124.56 242.928122 
L 123.291818 242.928122 
z
" style="fill:#ff4d4d;opacity:0.95;"/>
   </g>
   <g id="patch_43">
    <path clip-path="url(#p6e7612dfc6)" d="M 124.56 307.584 
L 125.828182 307.584 
L 125.828182 236.4564 
L 124.56 236.4564 
z
" style="fill:#ff4d4d;opacity:0.95;"/>
   </g>
   <g id="patch_44">
    <path clip-path="url(#p6e7612dfc6)" d="M 125.828182 307.584 
L 127.096364 307.584 
L 127.096364 225.291912 
L 125.828182 225.291912 
z
" style="fill:#ff4d4d;opacity:0.95;"/>
   </g>
   <g id="patch_45">
    <path clip-path="url(#p6e7612dfc6)" d="M 127.096364 307.584 
L 128.364545 307.584 
L 128.364545 215.292948 
L 127.096364 215.292948 
z
" style="fill:#ff4d4d;opacity:0.95;"/>
   </g>
   <g id="patch_46">
    <path clip-path="url(#p6e7612dfc6)" d="M 128.364545 307.584 
L 129.632727 307.584 
L 129.632727 200.171816 
L 128.364545 200.171816 
z
" style="fill:#ff4d4d;opacity:0.95;"/>
   </g>
   <g id="patch_47">
    <path clip-path="url(#p6e7612dfc6)" d="M 129.632727 307.584 
L 130.900909 307.584 
L 130.900909 186.124191 
L 129.632727 186.124191 
z
" style="fill:#ff4d4d;opacity:0.95;"/>
   </g>
   <g id="patch_48">
    <path clip-path="url(#p6e7612dfc6)" d="M 130.900909 307.584 
L 132.169091 307.584 
L 132.169091 170.573655 
L 130.900909 170.573655 
z
" style="fill:#ff4d4d;opacity:0.95;"/>
   </g>
   <g id="patch_49">
    <path clip-path="url(#p6e7612dfc6)" d="M 132.169091 307.584 
L 133.437273 307.584 
L 133.437273 156.955434 
L 132.169091 156.955434 
z
" style="fill:#ff4d4d;opacity:0.95;"/>
   </g>
   <g id="patch_50">
    <path clip-path="url(#p6e7612dfc6)" d="M 133.437273 307.584 
L 134.705455 307.584 
L 134.705455 141.098181 
L 133.437273 141.098181 
z
" style="fill:#ff4d4d;opacity:0.95;"/>
   </g>
   <g id="patch_51">
    <path clip-path="url(#p6e7612dfc6)" d="M 134.705455 307.584 
L 135.973636 307.584 
L 135.973636 122.541822 
L 134.705455 122.541822 
z
" style="fill:#ff4d4d;opacity:0.95;"/>
   </g>
   <g id="patch_52">
    <path clip-path="url(#p6e7612dfc6)" d="M 135.973636 307.584 
L 137.241818 307.584 
L 137.241818 108.187481 
L 135.973636 108.187481 
z
" style="fill:#ff4d4d;opacity:0.95;"/>
   </g>
   <g id="patch_53">
    <path clip-path="url(#p6e7612dfc6)" d="M 137.241818 307.584 
L 138.51 307.584 
L 138.51 95.428066 
L 137.241818 95.428066 
z
" style="fill:#ff4d4d;opacity:0.95;"/>
   </g>
   <g id="patch_54">
    <path clip-path="url(#p6e7612dfc6)" d="M 138.51 307.584 
L 139.778182 307.584 
L 139.778182 87.545447 
L 138.51 87.545447 
z
" style="fill:#ff4d4d;opacity:0.95;"/>
   </g>
   <g id="patch_55">
    <path clip-path="url(#p6e7612dfc6)" d="M 139.778182 307.584 
L 141.046364 307.584 
L 141.046364 73.681853 
L 139.778182 73.681853 
z
" style="fill:#ff4d4d;opacity:0.95;"/>
   </g>
   <g id="patch_56">
    <path clip-path="url(#p6e7612dfc6)" d="M 141.046364 307.584 
L 142.314545 307.584 
L 142.314545 70.737373 
L 141.046364 70.737373 
z
" style="fill:#ff4d4d;opacity:0.95;"/>
   </g>
   <g id="patch_57">
    <path clip-path="url(#p6e7612dfc6)" d="M 142.314545 307.584 
L 143.582727 307.584 
L 143.582727 64.173636 
L 142.314545 64.173636 
z
" style="fill:#ff4d4d;opacity:0.95;"/>
   </g>
   <g id="patch_58">
    <path clip-path="url(#p6e7612dfc6)" d="M 143.582727 307.584 
L 144.850909 307.584 
L 144.850909 61.443857 
L 143.582727 61.443857 
z
" style="fill:#ff4d4d;opacity:0.95;"/>
   </g>
   <g id="patch_59">
    <path clip-path="url(#p6e7612dfc6)" d="M 144.850909 307.584 
L 146.119091 307.584 
L 146.119091 54.144 
L 144.850909 54.144 
z
" style="fill:#ff4d4d;opacity:0.95;"/>
   </g>
   <g id="patch_60">
    <path clip-path="url(#p6e7612dfc6)" d="M 146.119091 307.584 
L 147.387273 307.584 
L 147.387273 54.910792 
L 146.119091 54.910792 
z
" style="fill:#ff4d4d;opacity:0.95;"/>
   </g>
   <g id="patch_61">
    <path clip-path="url(#p6e7612dfc6)" d="M 147.387273 307.584 
L 148.655455 307.584 
L 148.655455 73.712525 
L 147.387273 73.712525 
z
" style="fill:#ff4d4d;opacity:0.95;"/>
   </g>
   <g id="patch_62">
    <path clip-path="url(#p6e7612dfc6)" d="M 148.655455 307.584 
L 149.923636 307.584 
L 149.923636 89.600449 
L 148.655455 89.600449 
z
" style="fill:#ff4d4d;opacity:0.95;"/>
   </g>
   <g id="patch_63">
    <path clip-path="url(#p6e7612dfc6)" d="M 149.923636 307.584 
L 151.191818 307.584 
L 151.191818 106.500539 
L 149.923636 106.500539 
z
" style="fill:#ff4d4d;opacity:0.95;"/>
   </g>
   <g id="patch_64">
    <path clip-path="url(#p6e7612dfc6)" d="M 151.191818 307.584 
L 152.46 307.584 
L 152.46 120.916223 
L 151.191818 120.916223 
z
" style="fill:#ff4d4d;opacity:0.95;"/>
   </g>
   <g id="patch_65">
    <path clip-path="url(#p6e7612dfc6)" d="M 152.46 307.584 
L 153.728182 307.584 
L 153.728182 134.473101 
L 152.46 134.473101 
z
" style="fill:#ff4d4d;opacity:0.95;"/>
   </g>
   <g id="patch_66">
    <path clip-path="url(#p6e7612dfc6)" d="M 153.728182 307.584 
L 154.996364 307.584 
L 154.996364 148.919457 
L 153.728182 148.919457 
z
" style="fill:#ff4d4d;opacity:0.95;"/>
   </g>
   <g id="patch_67">
    <path clip-path="url(#p6e7612dfc6)" d="M 154.996364 307.584 
L 156.264545 307.584 
L 156.264545 165.666188 
L 154.996364 165.666188 
z
" style="fill:#ff4d4d;opacity:0.95;"/>
   </g>
   <g id="patch_68">
    <path clip-path="url(#p6e7612dfc6)" d="M 156.264545 307.584 
L 157.532727 307.584 
L 157.532727 173.42612 
L 156.264545 173.42612 
z
" style="fill:#ff4d4d;opacity:0.95;"/>
   </g>
   <g id="patch_69">
    <path clip-path="url(#p6e7612dfc6)" d="M 157.532727 307.584 
L 158.800909 307.584 
L 158.800909 179.897842 
L 157.532727 179.897842 
z
" style="fill:#ff4d4d;opacity:0.95;"/>
   </g>
   <g id="patch_70">
    <path clip-path="url(#p6e7612dfc6)" d="M 158.800909 307.584 
L 160.069091 307.584 
L 160.069091 185.602773 
L 158.800909 185.602773 
z
" style="fill:#ff4d4d;opacity:0.95;"/>
   </g>
   <g id="patch_71">
    <path clip-path="url(#p6e7612dfc6)" d="M 160.069091 307.584 
L 161.337273 307.584 
L 161.337273 190.51024 
L 160.069091 190.51024 
z
" style="fill:#ff4d4d;opacity:0.95;"/>
   </g>
   <g id="patch_72">
    <path clip-path="url(#p6e7612dfc6)" d="M 161.337273 307.584 
L 162.605455 307.584 
L 162.605455 197.472709 
L 161.337273 197.472709 
z
" style="fill:#ff4d4d;opacity:0.95;"/>
   </g>
   <g id="patch_73">
    <path clip-path="url(#p6e7612dfc6)" d="M 162.605455 307.584 
L 163.873636 307.584 
L 163.873636 197.87144 
L 162.605455 197.87144 
z
" style="fill:#ff4d4d;opacity:0.95;"/>
   </g>
   <g id="patch_74">
    <path clip-path="url(#p6e7612dfc6)" d="M 163.873636 307.584 
L 165.141818 307.584 
L 165.141818 203.760401 
L 163.873636 203.760401 
z
" style="fill:#ff4d4d;opacity:0.95;"/>
   </g>
   <g id="patch_75">
    <path clip-path="url(#p6e7612dfc6)" d="M 165.141818 307.584 
L 166.41 307.584 
L 166.41 208.023763 
L 165.141818 208.023763 
z
" style="fill:#ff4d4d;opacity:0.95;"/>
   </g>
   <g id="patch_76">
    <path clip-path="url(#p6e7612dfc6)" d="M 166.41 307.584 
L 167.678182 307.584 
L 167.678182 212.317796 
L 166.41 212.317796 
z
" style="fill:#ff4d4d;opacity:0.95;"/>
   </g>
   <g id="patch_77">
    <path clip-path="url(#p6e7612dfc6)" d="M 167.678182 307.584 
L 168.946364 307.584 
L 168.946364 210.784213 
L 167.678182 210.784213 
z
" style="fill:#ff4d4d;opacity:0.95;"/>
   </g>
   <g id="patch_78">
    <path clip-path="url(#p6e7612dfc6)" d="M 168.946364 307.584 
L 170.214545 307.584 
L 170.214545 212.133766 
L 168.946364 212.133766 
z
" style="fill:#ff4d4d;opacity:0.95;"/>
   </g>
   <g id="patch_79">
    <path clip-path="url(#p6e7612dfc6)" d="M 170.214545 307.584 
L 171.482727 307.584 
L 171.482727 212.348468 
L 170.214545 212.348468 
z
" style="fill:#ff4d4d;opacity:0.95;"/>
   </g>
   <g id="patch_80">
    <path clip-path="url(#p6e7612dfc6)" d="M 171.482727 307.584 
L 172.750909 307.584 
L 172.750909 214.40347 
L 171.482727 214.40347 
z
" style="fill:#ff4d4d;opacity:0.95;"/>
   </g>
   <g id="patch_81">
    <path clip-path="url(#p6e7612dfc6)" d="M 172.750909 307.584 
L 174.019091 307.584 
L 174.019091 211.366975 
L 172.750909 211.366975 
z
" style="fill:#ff4d4d;opacity:0.95;"/>
   </g>
   <g id="patch_82">
    <path clip-path="url(#p6e7612dfc6)" d="M 174.019091 307.584 
L 175.287273 307.584 
L 175.287273 213.48332 
L 174.019091 213.48332 
z
" style="fill:#ff4d4d;opacity:0.95;"/>
   </g>
   <g id="patch_83">
    <path clip-path="url(#p6e7612dfc6)" d="M 175.287273 307.584 
L 176.555455 307.584 
L 176.555455 213.728693 
L 175.287273 213.728693 
z
" style="fill:#ff4d4d;opacity:0.95;"/>
   </g>
   <g id="patch_84">
    <path clip-path="url(#p6e7612dfc6)" d="M 176.555455 307.584 
L 177.823636 307.584 
L 177.823636 212.440483 
L 176.555455 212.440483 
z
" style="fill:#ff4d4d;opacity:0.95;"/>
   </g>
   <g id="patch_85">
    <path clip-path="url(#p6e7612dfc6)" d="M 177.823636 307.584 
L 179.091818 307.584 
L 179.091818 212.532498 
L 177.823636 212.532498 
z
" style="fill:#ff4d4d;opacity:0.95;"/>
   </g>
   <g id="patch_86">
    <path clip-path="url(#p6e7612dfc6)" d="M 179.091818 307.584 
L 180.36 307.584 
L 180.36 211.152273 
L 179.091818 211.152273 
z
" style="fill:#ff4d4d;opacity:0.95;"/>
   </g>
   <g id="patch_87">
    <path clip-path="url(#p6e7612dfc6)" d="M 180.36 307.584 
L 181.628182 307.584 
L 181.628182 209.526675 
L 180.36 209.526675 
z
" style="fill:#ff4d4d;opacity:0.95;"/>
   </g>
   <g id="patch_88">
    <path clip-path="url(#p6e7612dfc6)" d="M 181.628182 307.584 
L 182.896364 307.584 
L 182.896364 212.624513 
L 181.628182 212.624513 
z
" style="fill:#ff4d4d;opacity:0.95;"/>
   </g>
   <g id="patch_89">
    <path clip-path="url(#p6e7612dfc6)" d="M 182.896364 307.584 
L 184.164545 307.584 
L 184.164545 208.606525 
L 182.896364 208.606525 
z
" style="fill:#ff4d4d;opacity:0.95;"/>
   </g>
   <g id="patch_90">
    <path clip-path="url(#p6e7612dfc6)" d="M 184.164545 307.584 
L 185.432727 307.584 
L 185.432727 206.950254 
L 184.164545 206.950254 
z
" style="fill:#ff4d4d;opacity:0.95;"/>
   </g>
   <g id="patch_91">
    <path clip-path="url(#p6e7612dfc6)" d="M 185.432727 307.584 
L 186.700909 307.584 
L 186.700909 204.741894 
L 185.432727 204.741894 
z
" style="fill:#ff4d4d;opacity:0.95;"/>
   </g>
   <g id="patch_92">
    <path clip-path="url(#p6e7612dfc6)" d="M 186.700909 307.584 
L 187.969091 307.584 
L 187.969091 207.901076 
L 186.700909 207.901076 
z
" style="fill:#ff4d4d;opacity:0.95;"/>
   </g>
   <g id="patch_93">
    <path clip-path="url(#p6e7612dfc6)" d="M 187.969091 307.584 
L 189.237273 307.584 
L 189.237273 203.545699 
L 187.969091 203.545699 
z
" style="fill:#ff4d4d;opacity:0.95;"/>
   </g>
   <g id="patch_94">
    <path clip-path="url(#p6e7612dfc6)" d="M 189.237273 307.584 
L 190.505455 307.584 
L 190.505455 205.876746 
L 189.237273 205.876746 
z
" style="fill:#ff4d4d;opacity:0.95;"/>
   </g>
   <g id="patch_95">
    <path clip-path="url(#p6e7612dfc6)" d="M 190.505455 307.584 
L 191.773636 307.584 
L 191.773636 207.195628 
L 190.505455 207.195628 
z
" style="fill:#ff4d4d;opacity:0.95;"/>
   </g>
   <g id="patch_96">
    <path clip-path="url(#p6e7612dfc6)" d="M 191.773636 307.584 
L 193.041818 307.584 
L 193.041818 209.894735 
L 191.773636 209.894735 
z
" style="fill:#ff4d4d;opacity:0.95;"/>
   </g>
   <g id="patch_97">
    <path clip-path="url(#p6e7612dfc6)" d="M 193.041818 307.584 
L 194.31 307.584 
L 194.31 209.833391 
L 193.041818 209.833391 
z
" style="fill:#ff4d4d;opacity:0.95;"/>
   </g>
   <g id="patch_98">
    <path clip-path="url(#p6e7612dfc6)" d="M 194.31 307.584 
L 195.578182 307.584 
L 195.578182 207.962419 
L 194.31 207.962419 
z
" style="fill:#ff4d4d;opacity:0.95;"/>
   </g>
   <g id="patch_99">
    <path clip-path="url(#p6e7612dfc6)" d="M 195.578182 307.584 
L 196.846364 307.584 
L 196.846364 207.809061 
L 195.578182 207.809061 
z
" style="fill:#ff4d4d;opacity:0.95;"/>
   </g>
   <g id="patch_100">
    <path clip-path="url(#p6e7612dfc6)" d="M 196.846364 307.584 
L 198.114545 307.584 
L 198.114545 209.219958 
L 196.846364 209.219958 
z
" style="fill:#ff4d4d;opacity:0.95;"/>
   </g>
   <g id="patch_101">
    <path clip-path="url(#p6e7612dfc6)" d="M 198.114545 307.584 
L 199.382727 307.584 
L 199.382727 207.072941 
L 198.114545 207.072941 
z
" style="fill:#ff4d4d;opacity:0.95;"/>
   </g>
   <g id="patch_102">
    <path clip-path="url(#p6e7612dfc6)" d="M 199.382727 307.584 
L 200.650909 307.584 
L 200.650909 207.287643 
L 199.382727 207.287643 
z
" style="fill:#ff4d4d;opacity:0.95;"/>
   </g>
   <g id="patch_103">
    <path clip-path="url(#p6e7612dfc6)" d="M 200.650909 307.584 
L 201.919091 307.584 
L 201.919091 205.846074 
L 200.650909 205.846074 
z
" style="fill:#ff4d4d;opacity:0.95;"/>
   </g>
   <g id="patch_104">
    <path clip-path="url(#p6e7612dfc6)" d="M 201.919091 307.584 
L 203.187273 307.584 
L 203.187273 206.336821 
L 201.919091 206.336821 
z
" style="fill:#ff4d4d;opacity:0.95;"/>
   </g>
   <g id="patch_105">
    <path clip-path="url(#p6e7612dfc6)" d="M 203.187273 307.584 
L 204.455455 307.584 
L 204.455455 211.612348 
L 203.187273 211.612348 
z
" style="fill:#ff4d4d;opacity:0.95;"/>
   </g>
   <g id="patch_106">
    <path clip-path="url(#p6e7612dfc6)" d="M 204.455455 307.584 
L 205.723636 307.584 
L 205.723636 209.864063 
L 204.455455 209.864063 
z
" style="fill:#ff4d4d;opacity:0.95;"/>
   </g>
   <g id="patch_107">
    <path clip-path="url(#p6e7612dfc6)" d="M 205.723636 307.584 
L 206.991818 307.584 
L 206.991818 214.95556 
L 205.723636 214.95556 
z
" style="fill:#ff4d4d;opacity:0.95;"/>
   </g>
   <g id="patch_108">
    <path clip-path="url(#p6e7612dfc6)" d="M 206.991818 307.584 
L 208.26 307.584 
L 208.26 216.4278 
L 206.991818 216.4278 
z
" style="fill:#ff4d4d;opacity:0.95;"/>
   </g>
   <g id="patch_109">
    <path clip-path="url(#p6e7612dfc6)" d="M 208.26 307.584 
L 209.528182 307.584 
L 209.528182 215.661008 
L 208.26 215.661008 
z
" style="fill:#ff4d4d;opacity:0.95;"/>
   </g>
   <g id="patch_110">
    <path clip-path="url(#p6e7612dfc6)" d="M 209.528182 307.584 
L 210.796364 307.584 
L 210.796364 211.366975 
L 209.528182 211.366975 
z
" style="fill:#ff4d4d;opacity:0.95;"/>
   </g>
   <g id="patch_111">
    <path clip-path="url(#p6e7612dfc6)" d="M 210.796364 307.584 
L 212.064545 307.584 
L 212.064545 215.078247 
L 210.796364 215.078247 
z
" style="fill:#ff4d4d;opacity:0.95;"/>
   </g>
   <g id="patch_112">
    <path clip-path="url(#p6e7612dfc6)" d="M 212.064545 307.584 
L 213.332727 307.584 
L 213.332727 212.348468 
L 212.064545 212.348468 
z
" style="fill:#ff4d4d;opacity:0.95;"/>
   </g>
   <g id="patch_113">
    <path clip-path="url(#p6e7612dfc6)" d="M 213.332727 307.584 
L 214.600909 307.584 
L 214.600909 208.667868 
L 213.332727 208.667868 
z
" style="fill:#ff4d4d;opacity:0.95;"/>
   </g>
   <g id="patch_114">
    <path clip-path="url(#p6e7612dfc6)" d="M 214.600909 307.584 
L 215.869091 307.584 
L 215.869091 204.220476 
L 214.600909 204.220476 
z
" style="fill:#ff4d4d;opacity:0.95;"/>
   </g>
   <g id="patch_115">
    <path clip-path="url(#p6e7612dfc6)" d="M 215.869091 307.584 
L 217.137273 307.584 
L 217.137273 210.017421 
L 215.869091 210.017421 
z
" style="fill:#ff4d4d;opacity:0.95;"/>
   </g>
   <g id="patch_116">
    <path clip-path="url(#p6e7612dfc6)" d="M 217.137273 307.584 
L 218.405455 307.584 
L 218.405455 214.832873 
L 217.137273 214.832873 
z
" style="fill:#ff4d4d;opacity:0.95;"/>
   </g>
   <g id="patch_117">
    <path clip-path="url(#p6e7612dfc6)" d="M 218.405455 307.584 
L 219.673636 307.584 
L 219.673636 218.482802 
L 218.405455 218.482802 
z
" style="fill:#ff4d4d;opacity:0.95;"/>
   </g>
   <g id="patch_118">
    <path clip-path="url(#p6e7612dfc6)" d="M 219.673636 307.584 
L 220.941818 307.584 
L 220.941818 222.071387 
L 219.673636 222.071387 
z
" style="fill:#ff4d4d;opacity:0.95;"/>
   </g>
   <g id="patch_119">
    <path clip-path="url(#p6e7612dfc6)" d="M 220.941818 307.584 
L 222.21 307.584 
L 222.21 227.408258 
L 220.941818 227.408258 
z
" style="fill:#ff4d4d;opacity:0.95;"/>
   </g>
   <g id="patch_120">
    <path clip-path="url(#p6e7612dfc6)" d="M 222.21 307.584 
L 223.478182 307.584 
L 223.478182 228.236393 
L 222.21 228.236393 
z
" style="fill:#ff4d4d;opacity:0.95;"/>
   </g>
   <g id="patch_121">
    <path clip-path="url(#p6e7612dfc6)" d="M 223.478182 307.584 
L 224.746364 307.584 
L 224.746364 232.315725 
L 223.478182 232.315725 
z
" style="fill:#ff4d4d;opacity:0.95;"/>
   </g>
   <g id="patch_122">
    <path clip-path="url(#p6e7612dfc6)" d="M 224.746364 307.584 
L 226.014545 307.584 
L 226.014545 231.824978 
L 224.746364 231.824978 
z
" style="fill:#ff4d4d;opacity:0.95;"/>
   </g>
   <g id="patch_123">
    <path clip-path="url(#p6e7612dfc6)" d="M 226.014545 307.584 
L 227.282727 307.584 
L 227.282727 232.131695 
L 226.014545 232.131695 
z
" style="fill:#ff4d4d;opacity:0.95;"/>
   </g>
   <g id="patch_124">
    <path clip-path="url(#p6e7612dfc6)" d="M 227.282727 307.584 
L 228.550909 307.584 
L 228.550909 231.794306 
L 227.282727 231.794306 
z
" style="fill:#ff4d4d;opacity:0.95;"/>
   </g>
   <g id="patch_125">
    <path clip-path="url(#p6e7612dfc6)" d="M 228.550909 307.584 
L 229.819091 307.584 
L 229.819091 226.089376 
L 228.550909 226.089376 
z
" style="fill:#ff4d4d;opacity:0.95;"/>
   </g>
   <g id="patch_126">
    <path clip-path="url(#p6e7612dfc6)" d="M 229.819091 307.584 
L 231.087273 307.584 
L 231.087273 224.893181 
L 229.819091 224.893181 
z
" style="fill:#ff4d4d;opacity:0.95;"/>
   </g>
   <g id="patch_127">
    <path clip-path="url(#p6e7612dfc6)" d="M 231.087273 307.584 
L 232.355455 307.584 
L 232.355455 224.862509 
L 231.087273 224.862509 
z
" style="fill:#ff4d4d;opacity:0.95;"/>
   </g>
   <g id="patch_128">
    <path clip-path="url(#p6e7612dfc6)" d="M 232.355455 307.584 
L 233.623636 307.584 
L 233.623636 229.831319 
L 232.355455 229.831319 
z
" style="fill:#ff4d4d;opacity:0.95;"/>
   </g>
   <g id="patch_129">
    <path clip-path="url(#p6e7612dfc6)" d="M 233.623636 307.584 
L 234.891818 307.584 
L 234.891818 231.334231 
L 233.623636 231.334231 
z
" style="fill:#ff4d4d;opacity:0.95;"/>
   </g>
   <g id="patch_130">
    <path clip-path="url(#p6e7612dfc6)" d="M 234.891818 307.584 
L 236.16 307.584 
L 236.16 231.67162 
L 234.891818 231.67162 
z
" style="fill:#ff4d4d;opacity:0.95;"/>
   </g>
   <g id="patch_131">
    <path clip-path="url(#p6e7612dfc6)" d="M 236.16 307.584 
L 237.428182 307.584 
L 237.428182 234.554756 
L 236.16 234.554756 
z
" style="fill:#ff4d4d;opacity:0.95;"/>
   </g>
   <g id="patch_132">
    <path clip-path="url(#p6e7612dfc6)" d="M 237.428182 307.584 
L 238.696364 307.584 
L 238.696364 232.683785 
L 237.428182 232.683785 
z
" style="fill:#ff4d4d;opacity:0.95;"/>
   </g>
   <g id="patch_133">
    <path clip-path="url(#p6e7612dfc6)" d="M 238.696364 307.584 
L 239.964545 307.584 
L 239.964545 233.87998 
L 238.696364 233.87998 
z
" style="fill:#ff4d4d;opacity:0.95;"/>
   </g>
   <g id="patch_134">
    <path clip-path="url(#p6e7612dfc6)" d="M 239.964545 307.584 
L 241.232727 307.584 
L 241.232727 236.241698 
L 239.964545 236.241698 
z
" style="fill:#ff4d4d;opacity:0.95;"/>
   </g>
   <g id="patch_135">
    <path clip-path="url(#p6e7612dfc6)" d="M 241.232727 307.584 
L 242.500909 307.584 
L 242.500909 237.407222 
L 241.232727 237.407222 
z
" style="fill:#ff4d4d;opacity:0.95;"/>
   </g>
   <g id="patch_136">
    <path clip-path="url(#p6e7612dfc6)" d="M 242.500909 307.584 
L 243.769091 307.584 
L 243.769091 237.131177 
L 242.500909 237.131177 
z
" style="fill:#ff4d4d;opacity:0.95;"/>
   </g>
   <g id="patch_137">
    <path clip-path="url(#p6e7612dfc6)" d="M 243.769091 307.584 
L 245.037273 307.584 
L 245.037273 237.529908 
L 243.769091 237.529908 
z
" style="fill:#ff4d4d;opacity:0.95;"/>
   </g>
   <g id="patch_138">
    <path clip-path="url(#p6e7612dfc6)" d="M 245.037273 307.584 
L 246.305455 307.584 
L 246.305455 237.284535 
L 245.037273 237.284535 
z
" style="fill:#ff4d4d;opacity:0.95;"/>
   </g>
   <g id="patch_139">
    <path clip-path="url(#p6e7612dfc6)" d="M 246.305455 307.584 
L 247.573636 307.584 
L 247.573636 237.74461 
L 246.305455 237.74461 
z
" style="fill:#ff4d4d;opacity:0.95;"/>
   </g>
   <g id="patch_140">
    <path clip-path="url(#p6e7612dfc6)" d="M 247.573636 307.584 
L 248.841818 307.584 
L 248.841818 243.26551 
L 247.573636 243.26551 
z
" style="fill:#ff4d4d;opacity:0.95;"/>
   </g>
   <g id="patch_141">
    <path clip-path="url(#p6e7612dfc6)" d="M 248.841818 307.584 
L 250.11 307.584 
L 250.11 246.823424 
L 248.841818 246.823424 
z
" style="fill:#ff4d4d;opacity:0.95;"/>
   </g>
   <g id="patch_142">
    <path clip-path="url(#p6e7612dfc6)" d="M 250.11 307.584 
L 251.378182 307.584 
L 251.378182 247.958276 
L 250.11 247.958276 
z
" style="fill:#ff4d4d;opacity:0.95;"/>
   </g>
   <g id="patch_143">
    <path clip-path="url(#p6e7612dfc6)" d="M 251.378182 307.584 
L 252.646364 307.584 
L 252.646364 250.258651 
L 251.378182 250.258651 
z
" style="fill:#ff4d4d;opacity:0.95;"/>
   </g>
   <g id="patch_144">
    <path clip-path="url(#p6e7612dfc6)" d="M 252.646364 307.584 
L 253.914545 307.584 
L 253.914545 253.724549 
L 252.646364 253.724549 
z
" style="fill:#ff4d4d;opacity:0.95;"/>
   </g>
   <g id="patch_145">
    <path clip-path="url(#p6e7612dfc6)" d="M 253.914545 307.584 
L 255.182727 307.584 
L 255.182727 258.87739 
L 253.914545 258.87739 
z
" style="fill:#ff4d4d;opacity:0.95;"/>
   </g>
   <g id="patch_146">
    <path clip-path="url(#p6e7612dfc6)" d="M 255.182727 307.584 
L 256.450909 307.584 
L 256.450909 261.055078 
L 255.182727 261.055078 
z
" style="fill:#ff4d4d;opacity:0.95;"/>
   </g>
   <g id="patch_147">
    <path clip-path="url(#p6e7612dfc6)" d="M 256.450909 307.584 
L 257.719091 307.584 
L 257.719091 261.361795 
L 256.450909 261.361795 
z
" style="fill:#ff4d4d;opacity:0.95;"/>
   </g>
   <g id="patch_148">
    <path clip-path="url(#p6e7612dfc6)" d="M 257.719091 307.584 
L 258.987273 307.584 
L 258.987273 265.042395 
L 257.719091 265.042395 
z
" style="fill:#ff4d4d;opacity:0.95;"/>
   </g>
   <g id="patch_149">
    <path clip-path="url(#p6e7612dfc6)" d="M 258.987273 307.584 
L 260.255455 307.584 
L 260.255455 267.281427 
L 258.987273 267.281427 
z
" style="fill:#ff4d4d;opacity:0.95;"/>
   </g>
   <g id="patch_150">
    <path clip-path="url(#p6e7612dfc6)" d="M 260.255455 307.584 
L 261.523636 307.584 
L 261.523636 266.60665 
L 260.255455 266.60665 
z
" style="fill:#ff4d4d;opacity:0.95;"/>
   </g>
   <g id="patch_151">
    <path clip-path="url(#p6e7612dfc6)" d="M 261.523636 307.584 
L 262.791818 307.584 
L 262.791818 267.5268 
L 261.523636 267.5268 
z
" style="fill:#ff4d4d;opacity:0.95;"/>
   </g>
   <g id="patch_152">
    <path clip-path="url(#p6e7612dfc6)" d="M 262.791818 307.584 
L 264.06 307.584 
L 264.06 270.992699 
L 262.791818 270.992699 
z
" style="fill:#ff4d4d;opacity:0.95;"/>
   </g>
   <g id="patch_153">
    <path clip-path="url(#p6e7612dfc6)" d="M 264.06 307.584 
L 265.328182 307.584 
L 265.328182 271.698147 
L 264.06 271.698147 
z
" style="fill:#ff4d4d;opacity:0.95;"/>
   </g>
   <g id="patch_154">
    <path clip-path="url(#p6e7612dfc6)" d="M 265.328182 307.584 
L 266.596364 307.584 
L 266.596364 272.096879 
L 265.328182 272.096879 
z
" style="fill:#ff4d4d;opacity:0.95;"/>
   </g>
   <g id="patch_155">
    <path clip-path="url(#p6e7612dfc6)" d="M 266.596364 307.584 
L 267.864545 307.584 
L 267.864545 271.299416 
L 266.596364 271.299416 
z
" style="fill:#ff4d4d;opacity:0.95;"/>
   </g>
   <g id="patch_156">
    <path clip-path="url(#p6e7612dfc6)" d="M 267.864545 307.584 
L 269.132727 307.584 
L 269.132727 270.593967 
L 267.864545 270.593967 
z
" style="fill:#ff4d4d;opacity:0.95;"/>
   </g>
   <g id="patch_157">
    <path clip-path="url(#p6e7612dfc6)" d="M 269.132727 307.584 
L 270.400909 307.584 
L 270.400909 269.091056 
L 269.132727 269.091056 
z
" style="fill:#ff4d4d;opacity:0.95;"/>
   </g>
   <g id="patch_158">
    <path clip-path="url(#p6e7612dfc6)" d="M 270.400909 307.584 
L 271.669091 307.584 
L 271.669091 271.606132 
L 270.400909 271.606132 
z
" style="fill:#ff4d4d;opacity:0.95;"/>
   </g>
   <g id="patch_159">
    <path clip-path="url(#p6e7612dfc6)" d="M 271.669091 307.584 
L 272.937273 307.584 
L 272.937273 271.698147 
L 271.669091 271.698147 
z
" style="fill:#ff4d4d;opacity:0.95;"/>
   </g>
   <g id="patch_160">
    <path clip-path="url(#p6e7612dfc6)" d="M 272.937273 307.584 
L 274.205455 307.584 
L 274.205455 271.391431 
L 272.937273 271.391431 
z
" style="fill:#ff4d4d;opacity:0.95;"/>
   </g>
   <g id="patch_161">
    <path clip-path="url(#p6e7612dfc6)" d="M 274.205455 307.584 
L 275.473636 307.584 
L 275.473636 272.342252 
L 274.205455 272.342252 
z
" style="fill:#ff4d4d;opacity:0.95;"/>
   </g>
   <g id="patch_162">
    <path clip-path="url(#p6e7612dfc6)" d="M 275.473636 307.584 
L 276.741818 307.584 
L 276.741818 272.648969 
L 275.473636 272.648969 
z
" style="fill:#ff4d4d;opacity:0.95;"/>
   </g>
   <g id="patch_163">
    <path clip-path="url(#p6e7612dfc6)" d="M 276.741818 307.584 
L 278.01 307.584 
L 278.01 272.250237 
L 276.741818 272.250237 
z
" style="fill:#ff4d4d;opacity:0.95;"/>
   </g>
   <g id="patch_164">
    <path clip-path="url(#p6e7612dfc6)" d="M 278.01 307.584 
L 279.278182 307.584 
L 279.278182 272.863671 
L 278.01 272.863671 
z
" style="fill:#ff4d4d;opacity:0.95;"/>
   </g>
   <g id="patch_165">
    <path clip-path="url(#p6e7612dfc6)" d="M 279.278182 307.584 
L 280.546364 307.584 
L 280.546364 274.734643 
L 279.278182 274.734643 
z
" style="fill:#ff4d4d;opacity:0.95;"/>
   </g>
   <g id="patch_166">
    <path clip-path="url(#p6e7612dfc6)" d="M 280.546364 307.584 
L 281.814545 307.584 
L 281.814545 278.323228 
L 280.546364 278.323228 
z
" style="fill:#ff4d4d;opacity:0.95;"/>
   </g>
   <g id="patch_167">
    <path clip-path="url(#p6e7612dfc6)" d="M 281.814545 307.584 
L 283.082727 307.584 
L 283.082727 278.231213 
L 281.814545 278.231213 
z
" style="fill:#ff4d4d;opacity:0.95;"/>
   </g>
   <g id="patch_168">
    <path clip-path="url(#p6e7612dfc6)" d="M 283.082727 307.584 
L 284.350909 307.584 
L 284.350909 278.90599 
L 283.082727 278.90599 
z
" style="fill:#ff4d4d;opacity:0.95;"/>
   </g>
   <g id="patch_169">
    <path clip-path="url(#p6e7612dfc6)" d="M 284.350909 307.584 
L 285.619091 307.584 
L 285.619091 276.666958 
L 284.350909 276.666958 
z
" style="fill:#ff4d4d;opacity:0.95;"/>
   </g>
   <g id="patch_170">
    <path clip-path="url(#p6e7612dfc6)" d="M 285.619091 307.584 
L 286.887273 307.584 
L 286.887273 280.163528 
L 285.619091 280.163528 
z
" style="fill:#ff4d4d;opacity:0.95;"/>
   </g>
   <g id="patch_171">
    <path clip-path="url(#p6e7612dfc6)" d="M 286.887273 307.584 
L 288.155455 307.584 
L 288.155455 281.390395 
L 286.887273 281.390395 
z
" style="fill:#ff4d4d;opacity:0.95;"/>
   </g>
   <g id="patch_172">
    <path clip-path="url(#p6e7612dfc6)" d="M 288.155455 307.584 
L 289.423636 307.584 
L 289.423636 280.93032 
L 288.155455 280.93032 
z
" style="fill:#ff4d4d;opacity:0.95;"/>
   </g>
   <g id="patch_173">
    <path clip-path="url(#p6e7612dfc6)" d="M 289.423636 307.584 
L 290.691818 307.584 
L 290.691818 280.654275 
L 289.423636 280.654275 
z
" style="fill:#ff4d4d;opacity:0.95;"/>
   </g>
   <g id="patch_174">
    <path clip-path="url(#p6e7612dfc6)" d="M 290.691818 307.584 
L 291.96 307.584 
L 291.96 283.292038 
L 290.691818 283.292038 
z
" style="fill:#ff4d4d;opacity:0.95;"/>
   </g>
   <g id="patch_175">
    <path clip-path="url(#p6e7612dfc6)" d="M 291.96 307.584 
L 293.228182 307.584 
L 293.228182 284.150845 
L 291.96 284.150845 
z
" style="fill:#ff4d4d;opacity:0.95;"/>
   </g>
   <g id="patch_176">
    <path clip-path="url(#p6e7612dfc6)" d="M 293.228182 307.584 
L 294.496364 307.584 
L 294.496364 283.445397 
L 293.228182 283.445397 
z
" style="fill:#ff4d4d;opacity:0.95;"/>
   </g>
   <g id="patch_177">
    <path clip-path="url(#p6e7612dfc6)" d="M 294.496364 307.584 
L 295.764545 307.584 
L 295.764545 285.592413 
L 294.496364 285.592413 
z
" style="fill:#ff4d4d;opacity:0.95;"/>
   </g>
   <g id="patch_178">
    <path clip-path="url(#p6e7612dfc6)" d="M 295.764545 307.584 
L 297.032727 307.584 
L 297.032727 284.24286 
L 295.764545 284.24286 
z
" style="fill:#ff4d4d;opacity:0.95;"/>
   </g>
   <g id="patch_179">
    <path clip-path="url(#p6e7612dfc6)" d="M 297.032727 307.584 
L 298.300909 307.584 
L 298.300909 284.24286 
L 297.032727 284.24286 
z
" style="fill:#ff4d4d;opacity:0.95;"/>
   </g>
   <g id="patch_180">
    <path clip-path="url(#p6e7612dfc6)" d="M 298.300909 307.584 
L 299.569091 307.584 
L 299.569091 284.304203 
L 298.300909 284.304203 
z
" style="fill:#ff4d4d;opacity:0.95;"/>
   </g>
   <g id="patch_181">
    <path clip-path="url(#p6e7612dfc6)" d="M 299.569091 307.584 
L 300.837273 307.584 
L 300.837273 283.169352 
L 299.569091 283.169352 
z
" style="fill:#ff4d4d;opacity:0.95;"/>
   </g>
   <g id="patch_182">
    <path clip-path="url(#p6e7612dfc6)" d="M 300.837273 307.584 
L 302.105455 307.584 
L 302.105455 285.500398 
L 300.837273 285.500398 
z
" style="fill:#ff4d4d;opacity:0.95;"/>
   </g>
   <g id="patch_183">
    <path clip-path="url(#p6e7612dfc6)" d="M 302.105455 307.584 
L 303.373636 307.584 
L 303.373636 284.61092 
L 302.105455 284.61092 
z
" style="fill:#ff4d4d;opacity:0.95;"/>
   </g>
   <g id="patch_184">
    <path clip-path="url(#p6e7612dfc6)" d="M 303.373636 307.584 
L 304.641818 307.584 
L 304.641818 286.665922 
L 303.373636 286.665922 
z
" style="fill:#ff4d4d;opacity:0.95;"/>
   </g>
   <g id="patch_185">
    <path clip-path="url(#p6e7612dfc6)" d="M 304.641818 307.584 
L 305.91 307.584 
L 305.91 283.813457 
L 304.641818 283.813457 
z
" style="fill:#ff4d4d;opacity:0.95;"/>
   </g>
   <g id="patch_186">
    <path clip-path="url(#p6e7612dfc6)" d="M 305.91 307.584 
L 307.178182 307.584 
L 307.178182 285.377712 
L 305.91 285.377712 
z
" style="fill:#ff4d4d;opacity:0.95;"/>
   </g>
   <g id="patch_187">
    <path clip-path="url(#p6e7612dfc6)" d="M 307.178182 307.584 
L 308.446364 307.584 
L 308.446364 285.776443 
L 307.178182 285.776443 
z
" style="fill:#ff4d4d;opacity:0.95;"/>
   </g>
   <g id="patch_188">
    <path clip-path="url(#p6e7612dfc6)" d="M 308.446364 307.584 
L 309.714545 307.584 
L 309.714545 286.757937 
L 308.446364 286.757937 
z
" style="fill:#ff4d4d;opacity:0.95;"/>
   </g>
   <g id="patch_189">
    <path clip-path="url(#p6e7612dfc6)" d="M 309.714545 307.584 
L 310.982727 307.584 
L 310.982727 286.573907 
L 309.714545 286.573907 
z
" style="fill:#ff4d4d;opacity:0.95;"/>
   </g>
   <g id="patch_190">
    <path clip-path="url(#p6e7612dfc6)" d="M 310.982727 307.584 
L 312.250909 307.584 
L 312.250909 285.868458 
L 310.982727 285.868458 
z
" style="fill:#ff4d4d;opacity:0.95;"/>
   </g>
   <g id="patch_191">
    <path clip-path="url(#p6e7612dfc6)" d="M 312.250909 307.584 
L 313.519091 307.584 
L 313.519091 286.849952 
L 312.250909 286.849952 
z
" style="fill:#ff4d4d;opacity:0.95;"/>
   </g>
   <g id="patch_192">
    <path clip-path="url(#p6e7612dfc6)" d="M 313.519091 307.584 
L 314.787273 307.584 
L 314.787273 285.776443 
L 313.519091 285.776443 
z
" style="fill:#ff4d4d;opacity:0.95;"/>
   </g>
   <g id="patch_193">
    <path clip-path="url(#p6e7612dfc6)" d="M 314.787273 307.584 
L 316.055455 307.584 
L 316.055455 286.972639 
L 314.787273 286.972639 
z
" style="fill:#ff4d4d;opacity:0.95;"/>
   </g>
   <g id="patch_194">
    <path clip-path="url(#p6e7612dfc6)" d="M 316.055455 307.584 
L 317.323636 307.584 
L 317.323636 286.972639 
L 316.055455 286.972639 
z
" style="fill:#ff4d4d;opacity:0.95;"/>
   </g>
   <g id="patch_195">
    <path clip-path="url(#p6e7612dfc6)" d="M 317.323636 307.584 
L 318.591818 307.584 
L 318.591818 285.684428 
L 317.323636 285.684428 
z
" style="fill:#ff4d4d;opacity:0.95;"/>
   </g>
   <g id="patch_196">
    <path clip-path="url(#p6e7612dfc6)" d="M 318.591818 307.584 
L 319.86 307.584 
L 319.86 287.770102 
L 318.591818 287.770102 
z
" style="fill:#ff4d4d;opacity:0.95;"/>
   </g>
   <g id="patch_197">
    <path clip-path="url(#p6e7612dfc6)" d="M 319.86 307.584 
L 321.128182 307.584 
L 321.128182 286.297862 
L 319.86 286.297862 
z
" style="fill:#ff4d4d;opacity:0.95;"/>
   </g>
   <g id="patch_198">
    <path clip-path="url(#p6e7612dfc6)" d="M 321.128182 307.584 
L 322.396364 307.584 
L 322.396364 287.524729 
L 321.128182 287.524729 
z
" style="fill:#ff4d4d;opacity:0.95;"/>
   </g>
   <g id="patch_199">
    <path clip-path="url(#p6e7612dfc6)" d="M 322.396364 307.584 
L 323.664545 307.584 
L 323.664545 285.807115 
L 322.396364 285.807115 
z
" style="fill:#ff4d4d;opacity:0.95;"/>
   </g>
   <g id="patch_200">
    <path clip-path="url(#p6e7612dfc6)" d="M 323.664545 307.584 
L 324.932727 307.584 
L 324.932727 288.260849 
L 323.664545 288.260849 
z
" style="fill:#ff4d4d;opacity:0.95;"/>
   </g>
   <g id="patch_201">
    <path clip-path="url(#p6e7612dfc6)" d="M 324.932727 307.584 
L 326.200909 307.584 
L 326.200909 287.862117 
L 324.932727 287.862117 
z
" style="fill:#ff4d4d;opacity:0.95;"/>
   </g>
   <g id="patch_202">
    <path clip-path="url(#p6e7612dfc6)" d="M 326.200909 307.584 
L 327.469091 307.584 
L 327.469091 286.604578 
L 326.200909 286.604578 
z
" style="fill:#ff4d4d;opacity:0.95;"/>
   </g>
   <g id="patch_203">
    <path clip-path="url(#p6e7612dfc6)" d="M 327.469091 307.584 
L 328.737273 307.584 
L 328.737273 288.168834 
L 327.469091 288.168834 
z
" style="fill:#ff4d4d;opacity:0.95;"/>
   </g>
   <g id="patch_204">
    <path clip-path="url(#p6e7612dfc6)" d="M 328.737273 307.584 
L 330.005455 307.584 
L 330.005455 287.524729 
L 328.737273 287.524729 
z
" style="fill:#ff4d4d;opacity:0.95;"/>
   </g>
   <g id="patch_205">
    <path clip-path="url(#p6e7612dfc6)" d="M 330.005455 307.584 
L 331.273636 307.584 
L 331.273636 288.046147 
L 330.005455 288.046147 
z
" style="fill:#ff4d4d;opacity:0.95;"/>
   </g>
   <g id="patch_206">
    <path clip-path="url(#p6e7612dfc6)" d="M 331.273636 307.584 
L 332.541818 307.584 
L 332.541818 286.205847 
L 331.273636 286.205847 
z
" style="fill:#ff4d4d;opacity:0.95;"/>
   </g>
   <g id="patch_207">
    <path clip-path="url(#p6e7612dfc6)" d="M 332.541818 307.584 
L 333.81 307.584 
L 333.81 287.00331 
L 332.541818 287.00331 
z
" style="fill:#ff4d4d;opacity:0.95;"/>
   </g>
   <g id="patch_208">
    <path clip-path="url(#p6e7612dfc6)" d="M 333.81 307.584 
L 335.078182 307.584 
L 335.078182 285.592413 
L 333.81 285.592413 
z
" style="fill:#ff4d4d;opacity:0.95;"/>
   </g>
   <g id="patch_209">
    <path clip-path="url(#p6e7612dfc6)" d="M 335.078182 307.584 
L 336.346364 307.584 
L 336.346364 286.205847 
L 335.078182 286.205847 
z
" style="fill:#ff4d4d;opacity:0.95;"/>
   </g>
   <g id="patch_210">
    <path clip-path="url(#p6e7612dfc6)" d="M 336.346364 307.584 
L 337.614545 307.584 
L 337.614545 286.512563 
L 336.346364 286.512563 
z
" style="fill:#ff4d4d;opacity:0.95;"/>
   </g>
   <g id="patch_211">
    <path clip-path="url(#p6e7612dfc6)" d="M 337.614545 307.584 
L 338.882727 307.584 
L 338.882727 286.205847 
L 337.614545 286.205847 
z
" style="fill:#ff4d4d;opacity:0.95;"/>
   </g>
   <g id="patch_212">
    <path clip-path="url(#p6e7612dfc6)" d="M 338.882727 307.584 
L 340.150909 307.584 
L 340.150909 285.684428 
L 338.882727 285.684428 
z
" style="fill:#ff4d4d;opacity:0.95;"/>
   </g>
   <g id="patch_213">
    <path clip-path="url(#p6e7612dfc6)" d="M 340.150909 307.584 
L 341.419091 307.584 
L 341.419091 287.984804 
L 340.150909 287.984804 
z
" style="fill:#ff4d4d;opacity:0.95;"/>
   </g>
   <g id="patch_214">
    <path clip-path="url(#p6e7612dfc6)" d="M 341.419091 307.584 
L 342.687273 307.584 
L 342.687273 287.678087 
L 341.419091 287.678087 
z
" style="fill:#ff4d4d;opacity:0.95;"/>
   </g>
   <g id="patch_215">
    <path clip-path="url(#p6e7612dfc6)" d="M 342.687273 307.584 
L 343.955455 307.584 
L 343.955455 288.230177 
L 342.687273 288.230177 
z
" style="fill:#ff4d4d;opacity:0.95;"/>
   </g>
   <g id="patch_216">
    <path clip-path="url(#p6e7612dfc6)" d="M 343.955455 307.584 
L 345.223636 307.584 
L 345.223636 287.279355 
L 343.955455 287.279355 
z
" style="fill:#ff4d4d;opacity:0.95;"/>
   </g>
   <g id="patch_217">
    <path clip-path="url(#p6e7612dfc6)" d="M 345.223636 307.584 
L 346.491818 307.584 
L 346.491818 289.518387 
L 345.223636 289.518387 
z
" style="fill:#ff4d4d;opacity:0.95;"/>
   </g>
   <g id="patch_218">
    <path clip-path="url(#p6e7612dfc6)" d="M 346.491818 307.584 
L 347.76 307.584 
L 347.76 289.303685 
L 346.491818 289.303685 
z
" style="fill:#ff4d4d;opacity:0.95;"/>
   </g>
   <g id="patch_219">
    <path clip-path="url(#p6e7612dfc6)" d="M 347.76 307.584 
L 349.028182 307.584 
L 349.028182 291.941449 
L 347.76 291.941449 
z
" style="fill:#ff4d4d;opacity:0.95;"/>
   </g>
   <g id="patch_220">
    <path clip-path="url(#p6e7612dfc6)" d="M 349.028182 307.584 
L 350.296364 307.584 
L 350.296364 290.438537 
L 349.028182 290.438537 
z
" style="fill:#ff4d4d;opacity:0.95;"/>
   </g>
   <g id="patch_221">
    <path clip-path="url(#p6e7612dfc6)" d="M 350.296364 307.584 
L 351.564545 307.584 
L 351.564545 291.389359 
L 350.296364 291.389359 
z
" style="fill:#ff4d4d;opacity:0.95;"/>
   </g>
   <g id="patch_222">
    <path clip-path="url(#p6e7612dfc6)" d="M 351.564545 307.584 
L 352.832727 307.584 
L 352.832727 292.248166 
L 351.564545 292.248166 
z
" style="fill:#ff4d4d;opacity:0.95;"/>
   </g>
   <g id="patch_223">
    <path clip-path="url(#p6e7612dfc6)" d="M 352.832727 307.584 
L 354.100909 307.584 
L 354.100909 290.530552 
L 352.832727 290.530552 
z
" style="fill:#ff4d4d;opacity:0.95;"/>
   </g>
   <g id="patch_224">
    <path clip-path="url(#p6e7612dfc6)" d="M 354.100909 307.584 
L 355.369091 307.584 
L 355.369091 288.65958 
L 354.100909 288.65958 
z
" style="fill:#ff4d4d;opacity:0.95;"/>
   </g>
   <g id="patch_225">
    <path clip-path="url(#p6e7612dfc6)" d="M 355.369091 307.584 
L 356.637273 307.584 
L 356.637273 289.21167 
L 355.369091 289.21167 
z
" style="fill:#ff4d4d;opacity:0.95;"/>
   </g>
   <g id="patch_226">
    <path clip-path="url(#p6e7612dfc6)" d="M 356.637273 307.584 
L 357.905455 307.584 
L 357.905455 288.414207 
L 356.637273 288.414207 
z
" style="fill:#ff4d4d;opacity:0.95;"/>
   </g>
   <g id="patch_227">
    <path clip-path="url(#p6e7612dfc6)" d="M 357.905455 307.584 
L 359.173636 307.584 
L 359.173636 288.996969 
L 357.905455 288.996969 
z
" style="fill:#ff4d4d;opacity:0.95;"/>
   </g>
   <g id="patch_228">
    <path clip-path="url(#p6e7612dfc6)" d="M 359.173636 307.584 
L 360.441818 307.584 
L 360.441818 287.279355 
L 359.173636 287.279355 
z
" style="fill:#ff4d4d;opacity:0.95;"/>
   </g>
   <g id="patch_229">
    <path clip-path="url(#p6e7612dfc6)" d="M 360.441818 307.584 
L 361.71 307.584 
L 361.71 288.966297 
L 360.441818 288.966297 
z
" style="fill:#ff4d4d;opacity:0.95;"/>
   </g>
   <g id="patch_230">
    <path clip-path="url(#p6e7612dfc6)" d="M 361.71 307.584 
L 362.978182 307.584 
L 362.978182 287.800774 
L 361.71 287.800774 
z
" style="fill:#ff4d4d;opacity:0.95;"/>
   </g>
   <g id="patch_231">
    <path clip-path="url(#p6e7612dfc6)" d="M 362.978182 307.584 
L 364.246364 307.584 
L 364.246364 286.328533 
L 362.978182 286.328533 
z
" style="fill:#ff4d4d;opacity:0.95;"/>
   </g>
   <g id="patch_232">
    <path clip-path="url(#p6e7612dfc6)" d="M 364.246364 307.584 
L 365.514545 307.584 
L 365.514545 289.02764 
L 364.246364 289.02764 
z
" style="fill:#ff4d4d;opacity:0.95;"/>
   </g>
   <g id="patch_233">
    <path clip-path="url(#p6e7612dfc6)" d="M 365.514545 307.584 
L 366.782727 307.584 
L 366.782727 290.469209 
L 365.514545 290.469209 
z
" style="fill:#ff4d4d;opacity:0.95;"/>
   </g>
   <g id="patch_234">
    <path clip-path="url(#p6e7612dfc6)" d="M 366.782727 307.584 
L 368.050909 307.584 
L 368.050909 290.929284 
L 366.782727 290.929284 
z
" style="fill:#ff4d4d;opacity:0.95;"/>
   </g>
   <g id="patch_235">
    <path clip-path="url(#p6e7612dfc6)" d="M 368.050909 307.584 
L 369.319091 307.584 
L 369.319091 291.941449 
L 368.050909 291.941449 
z
" style="fill:#ff4d4d;opacity:0.95;"/>
   </g>
   <g id="patch_236">
    <path clip-path="url(#p6e7612dfc6)" d="M 369.319091 307.584 
L 370.587273 307.584 
L 370.587273 292.370852 
L 369.319091 292.370852 
z
" style="fill:#ff4d4d;opacity:0.95;"/>
   </g>
   <g id="patch_237">
    <path clip-path="url(#p6e7612dfc6)" d="M 370.587273 307.584 
L 371.855455 307.584 
L 371.855455 289.487715 
L 370.587273 289.487715 
z
" style="fill:#ff4d4d;opacity:0.95;"/>
   </g>
   <g id="patch_238">
    <path clip-path="url(#p6e7612dfc6)" d="M 371.855455 307.584 
L 373.123636 307.584 
L 373.123636 287.954132 
L 371.855455 287.954132 
z
" style="fill:#ff4d4d;opacity:0.95;"/>
   </g>
   <g id="patch_239">
    <path clip-path="url(#p6e7612dfc6)" d="M 373.123636 307.584 
L 374.391818 307.584 
L 374.391818 286.297862 
L 373.123636 286.297862 
z
" style="fill:#ff4d4d;opacity:0.95;"/>
   </g>
   <g id="patch_240">
    <path clip-path="url(#p6e7612dfc6)" d="M 374.391818 307.584 
L 375.66 307.584 
L 375.66 285.040323 
L 374.391818 285.040323 
z
" style="fill:#ff4d4d;opacity:0.95;"/>
   </g>
   <g id="patch_241">
    <path clip-path="url(#p6e7612dfc6)" d="M 375.66 307.584 
L 376.928182 307.584 
L 376.928182 285.34704 
L 375.66 285.34704 
z
" style="fill:#ff4d4d;opacity:0.95;"/>
   </g>
   <g id="patch_242">
    <path clip-path="url(#p6e7612dfc6)" d="M 376.928182 307.584 
L 378.196364 307.584 
L 378.196364 287.647415 
L 376.928182 287.647415 
z
" style="fill:#ff4d4d;opacity:0.95;"/>
   </g>
   <g id="patch_243">
    <path clip-path="url(#p6e7612dfc6)" d="M 378.196364 307.584 
L 379.464545 307.584 
L 379.464545 282.371888 
L 378.196364 282.371888 
z
" style="fill:#ff4d4d;opacity:0.95;"/>
   </g>
   <g id="patch_244">
    <path clip-path="url(#p6e7612dfc6)" d="M 379.464545 307.584 
L 380.732727 307.584 
L 380.732727 277.403078 
L 379.464545 277.403078 
z
" style="fill:#ff4d4d;opacity:0.95;"/>
   </g>
   <g id="patch_245">
    <path clip-path="url(#p6e7612dfc6)" d="M 380.732727 307.584 
L 382.000909 307.584 
L 382.000909 271.882177 
L 380.732727 271.882177 
z
" style="fill:#ff4d4d;opacity:0.95;"/>
   </g>
   <g id="patch_246">
    <path clip-path="url(#p6e7612dfc6)" d="M 382.000909 307.584 
L 383.269091 307.584 
L 383.269091 267.097397 
L 382.000909 267.097397 
z
" style="fill:#ff4d4d;opacity:0.95;"/>
   </g>
   <g id="patch_247">
    <path clip-path="url(#p6e7612dfc6)" d="M 383.269091 307.584 
L 384.537273 307.584 
L 384.537273 261.668512 
L 383.269091 261.668512 
z
" style="fill:#ff4d4d;opacity:0.95;"/>
   </g>
   <g id="patch_248">
    <path clip-path="url(#p6e7612dfc6)" d="M 384.537273 307.584 
L 385.805455 307.584 
L 385.805455 257.129105 
L 384.537273 257.129105 
z
" style="fill:#ff4d4d;opacity:0.95;"/>
   </g>
   <g id="patch_249">
    <path clip-path="url(#p6e7612dfc6)" d="M 385.805455 307.584 
L 387.073636 307.584 
L 387.073636 286.389877 
L 385.805455 286.389877 
z
" style="fill:#ff4d4d;opacity:0.95;"/>
   </g>
   <g id="patch_250">
    <path clip-path="url(#p6e7612dfc6)" d="M 387.073636 307.584 
L 388.341818 307.584 
L 388.341818 298.505186 
L 387.073636 298.505186 
z
" style="fill:#ff4d4d;opacity:0.95;"/>
   </g>
   <g id="patch_251">
    <path clip-path="url(#p6e7612dfc6)" d="M 388.341818 307.584 
L 389.61 307.584 
L 389.61 302.553846 
L 388.341818 302.553846 
z
" style="fill:#ff4d4d;opacity:0.95;"/>
   </g>
   <g id="patch_252">
    <path clip-path="url(#p6e7612dfc6)" d="M 389.61 307.584 
L 390.878182 307.584 
L 390.878182 302.98325 
L 389.61 302.98325 
z
" style="fill:#ff4d4d;opacity:0.95;"/>
   </g>
   <g id="patch_253">
    <path clip-path="url(#p6e7612dfc6)" d="M 390.878182 307.584 
L 392.146364 307.584 
L 392.146364 305.835715 
L 390.878182 305.835715 
z
" style="fill:#ff4d4d;opacity:0.95;"/>
   </g>
   <g id="patch_254">
    <path clip-path="url(#p6e7612dfc6)" d="M 392.146364 307.584 
L 393.414545 307.584 
L 393.414545 306.47982 
L 392.146364 306.47982 
z
" style="fill:#ff4d4d;opacity:0.95;"/>
   </g>
   <g id="patch_255">
    <path clip-path="url(#p6e7612dfc6)" d="M 393.414545 307.584 
L 394.682727 307.584 
L 394.682727 306.878552 
L 393.414545 306.878552 
z
" style="fill:#ff4d4d;opacity:0.95;"/>
   </g>
   <g id="patch_256">
    <path clip-path="url(#p6e7612dfc6)" d="M 394.682727 307.584 
L 395.950909 307.584 
L 395.950909 307.338627 
L 394.682727 307.338627 
z
" style="fill:#ff4d4d;opacity:0.95;"/>
   </g>
   <g id="patch_257">
    <path clip-path="url(#p6e7612dfc6)" d="M 395.950909 307.584 
L 397.219091 307.584 
L 397.219091 307.307955 
L 395.950909 307.307955 
z
" style="fill:#ff4d4d;opacity:0.95;"/>
   </g>
   <g id="patch_258">
    <path clip-path="url(#p6e7612dfc6)" d="M 397.219091 307.584 
L 398.487273 307.584 
L 398.487273 307.093253 
L 397.219091 307.093253 
z
" style="fill:#ff4d4d;opacity:0.95;"/>
   </g>
   <g id="matplotlib.axis_1">
    <g id="xtick_1">
     <g id="line2d_1">
      <defs>
       <path d="M 0 0 
L 0 3.5 
" id="m12726bbb42" style="stroke:#000000;stroke-width:0.8;"/>
      </defs>
      <g>
       <use style="stroke:#000000;stroke-width:0.8;" x="155.314652" xlink:href="#m12726bbb42" y="307.584"/>
      </g>
     </g>
     <g id="text_1">
      <!-- 64 -->
      <defs>
       <path d="M 33.015625 40.375 
Q 26.375 40.375 22.484375 35.828125 
Q 18.609375 31.296875 18.609375 23.390625 
Q 18.609375 15.53125 22.484375 10.953125 
Q 26.375 6.390625 33.015625 6.390625 
Q 39.65625 6.390625 43.53125 10.953125 
Q 47.40625 15.53125 47.40625 23.390625 
Q 47.40625 31.296875 43.53125 35.828125 
Q 39.65625 40.375 33.015625 40.375 
z
M 52.59375 71.296875 
L 52.59375 62.3125 
Q 48.875 64.0625 45.09375 64.984375 
Q 41.3125 65.921875 37.59375 65.921875 
Q 27.828125 65.921875 22.671875 59.328125 
Q 17.53125 52.734375 16.796875 39.40625 
Q 19.671875 43.65625 24.015625 45.921875 
Q 28.375 48.1875 33.59375 48.1875 
Q 44.578125 48.1875 50.953125 41.515625 
Q 57.328125 34.859375 57.328125 23.390625 
Q 57.328125 12.15625 50.6875 5.359375 
Q 44.046875 -1.421875 33.015625 -1.421875 
Q 20.359375 -1.421875 13.671875 8.265625 
Q 6.984375 17.96875 6.984375 36.375 
Q 6.984375 53.65625 15.1875 63.9375 
Q 23.390625 74.21875 37.203125 74.21875 
Q 40.921875 74.21875 44.703125 73.484375 
Q 48.484375 72.75 52.59375 71.296875 
z
" id="DejaVuSans-54"/>
       <path d="M 37.796875 64.3125 
L 12.890625 25.390625 
L 37.796875 25.390625 
z
M 35.203125 72.90625 
L 47.609375 72.90625 
L 47.609375 25.390625 
L 58.015625 25.390625 
L 58.015625 17.1875 
L 47.609375 17.1875 
L 47.609375 0 
L 37.796875 0 
L 37.796875 17.1875 
L 4.890625 17.1875 
L 4.890625 26.703125 
z
" id="DejaVuSans-52"/>
      </defs>
      <g transform="translate(148.952152 322.182437)scale(0.1 -0.1)">
       <use xlink:href="#DejaVuSans-54"/>
       <use x="63.623047" xlink:href="#DejaVuSans-52"/>
      </g>
     </g>
    </g>
    <g id="xtick_2">
     <g id="line2d_2">
      <g>
       <use style="stroke:#000000;stroke-width:0.8;" x="236.796578" xlink:href="#m12726bbb42" y="307.584"/>
      </g>
     </g>
     <g id="text_2">
      <!-- 128 -->
      <defs>
       <path d="M 12.40625 8.296875 
L 28.515625 8.296875 
L 28.515625 63.921875 
L 10.984375 60.40625 
L 10.984375 69.390625 
L 28.421875 72.90625 
L 38.28125 72.90625 
L 38.28125 8.296875 
L 54.390625 8.296875 
L 54.390625 0 
L 12.40625 0 
z
" id="DejaVuSans-49"/>
       <path d="M 19.1875 8.296875 
L 53.609375 8.296875 
L 53.609375 0 
L 7.328125 0 
L 7.328125 8.296875 
Q 12.9375 14.109375 22.625 23.890625 
Q 32.328125 33.6875 34.8125 36.53125 
Q 39.546875 41.84375 41.421875 45.53125 
Q 43.3125 49.21875 43.3125 52.78125 
Q 43.3125 58.59375 39.234375 62.25 
Q 35.15625 65.921875 28.609375 65.921875 
Q 23.96875 65.921875 18.8125 64.3125 
Q 13.671875 62.703125 7.8125 59.421875 
L 7.8125 69.390625 
Q 13.765625 71.78125 18.9375 73 
Q 24.125 74.21875 28.421875 74.21875 
Q 39.75 74.21875 46.484375 68.546875 
Q 53.21875 62.890625 53.21875 53.421875 
Q 53.21875 48.921875 51.53125 44.890625 
Q 49.859375 40.875 45.40625 35.40625 
Q 44.1875 33.984375 37.640625 27.21875 
Q 31.109375 20.453125 19.1875 8.296875 
z
" id="DejaVuSans-50"/>
       <path d="M 31.78125 34.625 
Q 24.75 34.625 20.71875 30.859375 
Q 16.703125 27.09375 16.703125 20.515625 
Q 16.703125 13.921875 20.71875 10.15625 
Q 24.75 6.390625 31.78125 6.390625 
Q 38.8125 6.390625 42.859375 10.171875 
Q 46.921875 13.96875 46.921875 20.515625 
Q 46.921875 27.09375 42.890625 30.859375 
Q 38.875 34.625 31.78125 34.625 
z
M 21.921875 38.8125 
Q 15.578125 40.375 12.03125 44.71875 
Q 8.5 49.078125 8.5 55.328125 
Q 8.5 64.0625 14.71875 69.140625 
Q 20.953125 74.21875 31.78125 74.21875 
Q 42.671875 74.21875 48.875 69.140625 
Q 55.078125 64.0625 55.078125 55.328125 
Q 55.078125 49.078125 51.53125 44.71875 
Q 48 40.375 41.703125 38.8125 
Q 48.828125 37.15625 52.796875 32.3125 
Q 56.78125 27.484375 56.78125 20.515625 
Q 56.78125 9.90625 50.3125 4.234375 
Q 43.84375 -1.421875 31.78125 -1.421875 
Q 19.734375 -1.421875 13.25 4.234375 
Q 6.78125 9.90625 6.78125 20.515625 
Q 6.78125 27.484375 10.78125 32.3125 
Q 14.796875 37.15625 21.921875 38.8125 
z
M 18.3125 54.390625 
Q 18.3125 48.734375 21.84375 45.5625 
Q 25.390625 42.390625 31.78125 42.390625 
Q 38.140625 42.390625 41.71875 45.5625 
Q 45.3125 48.734375 45.3125 54.390625 
Q 45.3125 60.0625 41.71875 63.234375 
Q 38.140625 66.40625 31.78125 66.40625 
Q 25.390625 66.40625 21.84375 63.234375 
Q 18.3125 60.0625 18.3125 54.390625 
z
" id="DejaVuSans-56"/>
      </defs>
      <g transform="translate(227.252828 322.182437)scale(0.1 -0.1)">
       <use xlink:href="#DejaVuSans-49"/>
       <use x="63.623047" xlink:href="#DejaVuSans-50"/>
       <use x="127.246094" xlink:href="#DejaVuSans-56"/>
      </g>
     </g>
    </g>
    <g id="xtick_3">
     <g id="line2d_3">
      <g>
       <use style="stroke:#000000;stroke-width:0.8;" x="318.278503" xlink:href="#m12726bbb42" y="307.584"/>
      </g>
     </g>
     <g id="text_3">
      <!-- 192 -->
      <defs>
       <path d="M 10.984375 1.515625 
L 10.984375 10.5 
Q 14.703125 8.734375 18.5 7.8125 
Q 22.3125 6.890625 25.984375 6.890625 
Q 35.75 6.890625 40.890625 13.453125 
Q 46.046875 20.015625 46.78125 33.40625 
Q 43.953125 29.203125 39.59375 26.953125 
Q 35.25 24.703125 29.984375 24.703125 
Q 19.046875 24.703125 12.671875 31.3125 
Q 6.296875 37.9375 6.296875 49.421875 
Q 6.296875 60.640625 12.9375 67.421875 
Q 19.578125 74.21875 30.609375 74.21875 
Q 43.265625 74.21875 49.921875 64.515625 
Q 56.59375 54.828125 56.59375 36.375 
Q 56.59375 19.140625 48.40625 8.859375 
Q 40.234375 -1.421875 26.421875 -1.421875 
Q 22.703125 -1.421875 18.890625 -0.6875 
Q 15.09375 0.046875 10.984375 1.515625 
z
M 30.609375 32.421875 
Q 37.25 32.421875 41.125 36.953125 
Q 45.015625 41.5 45.015625 49.421875 
Q 45.015625 57.28125 41.125 61.84375 
Q 37.25 66.40625 30.609375 66.40625 
Q 23.96875 66.40625 20.09375 61.84375 
Q 16.21875 57.28125 16.21875 49.421875 
Q 16.21875 41.5 20.09375 36.953125 
Q 23.96875 32.421875 30.609375 32.421875 
z
" id="DejaVuSans-57"/>
      </defs>
      <g transform="translate(308.734753 322.182437)scale(0.1 -0.1)">
       <use xlink:href="#DejaVuSans-49"/>
       <use x="63.623047" xlink:href="#DejaVuSans-57"/>
       <use x="127.246094" xlink:href="#DejaVuSans-50"/>
      </g>
     </g>
    </g>
    <g id="xtick_4">
     <g id="line2d_4">
      <g>
       <use style="stroke:#000000;stroke-width:0.8;" x="398.487273" xlink:href="#m12726bbb42" y="307.584"/>
      </g>
     </g>
     <g id="text_4">
      <!-- 255 -->
      <defs>
       <path d="M 10.796875 72.90625 
L 49.515625 72.90625 
L 49.515625 64.59375 
L 19.828125 64.59375 
L 19.828125 46.734375 
Q 21.96875 47.46875 24.109375 47.828125 
Q 26.265625 48.1875 28.421875 48.1875 
Q 40.625 48.1875 47.75 41.5 
Q 54.890625 34.8125 54.890625 23.390625 
Q 54.890625 11.625 47.5625 5.09375 
Q 40.234375 -1.421875 26.90625 -1.421875 
Q 22.3125 -1.421875 17.546875 -0.640625 
Q 12.796875 0.140625 7.71875 1.703125 
L 7.71875 11.625 
Q 12.109375 9.234375 16.796875 8.0625 
Q 21.484375 6.890625 26.703125 6.890625 
Q 35.15625 6.890625 40.078125 11.328125 
Q 45.015625 15.765625 45.015625 23.390625 
Q 45.015625 31 40.078125 35.4375 
Q 35.15625 39.890625 26.703125 39.890625 
Q 22.75 39.890625 18.8125 39.015625 
Q 14.890625 38.140625 10.796875 36.28125 
z
" id="DejaVuSans-53"/>
      </defs>
      <g transform="translate(388.943523 322.182437)scale(0.1 -0.1)">
       <use xlink:href="#DejaVuSans-50"/>
       <use x="63.623047" xlink:href="#DejaVuSans-53"/>
       <use x="127.246094" xlink:href="#DejaVuSans-53"/>
      </g>
     </g>
    </g>
   </g>
   <g id="matplotlib.axis_2">
    <g id="ytick_1">
     <g id="line2d_5">
      <defs>
       <path d="M 0 0 
L -3.5 0 
" id="m80e0ba164a" style="stroke:#000000;stroke-width:0.8;"/>
      </defs>
      <g>
       <use style="stroke:#000000;stroke-width:0.8;" x="57.6" xlink:href="#m80e0ba164a" y="307.584"/>
      </g>
     </g>
     <g id="text_5">
      <!-- 0 -->
      <defs>
       <path d="M 31.78125 66.40625 
Q 24.171875 66.40625 20.328125 58.90625 
Q 16.5 51.421875 16.5 36.375 
Q 16.5 21.390625 20.328125 13.890625 
Q 24.171875 6.390625 31.78125 6.390625 
Q 39.453125 6.390625 43.28125 13.890625 
Q 47.125 21.390625 47.125 36.375 
Q 47.125 51.421875 43.28125 58.90625 
Q 39.453125 66.40625 31.78125 66.40625 
z
M 31.78125 74.21875 
Q 44.046875 74.21875 50.515625 64.515625 
Q 56.984375 54.828125 56.984375 36.375 
Q 56.984375 17.96875 50.515625 8.265625 
Q 44.046875 -1.421875 31.78125 -1.421875 
Q 19.53125 -1.421875 13.0625 8.265625 
Q 6.59375 17.96875 6.59375 36.375 
Q 6.59375 54.828125 13.0625 64.515625 
Q 19.53125 74.21875 31.78125 74.21875 
z
" id="DejaVuSans-48"/>
      </defs>
      <g transform="translate(44.2375 311.383219)scale(0.1 -0.1)">
       <use xlink:href="#DejaVuSans-48"/>
      </g>
     </g>
    </g>
    <g id="ytick_2">
     <g id="line2d_6">
      <g>
       <use style="stroke:#000000;stroke-width:0.8;" x="57.6" xlink:href="#m80e0ba164a" y="276.912331"/>
      </g>
     </g>
     <g id="text_6">
      <!-- 1000 -->
      <g transform="translate(25.15 280.71155)scale(0.1 -0.1)">
       <use xlink:href="#DejaVuSans-49"/>
       <use x="63.623047" xlink:href="#DejaVuSans-48"/>
       <use x="127.246094" xlink:href="#DejaVuSans-48"/>
       <use x="190.869141" xlink:href="#DejaVuSans-48"/>
      </g>
     </g>
    </g>
    <g id="ytick_3">
     <g id="line2d_7">
      <g>
       <use style="stroke:#000000;stroke-width:0.8;" x="57.6" xlink:href="#m80e0ba164a" y="246.240662"/>
      </g>
     </g>
     <g id="text_7">
      <!-- 2000 -->
      <g transform="translate(25.15 250.039881)scale(0.1 -0.1)">
       <use xlink:href="#DejaVuSans-50"/>
       <use x="63.623047" xlink:href="#DejaVuSans-48"/>
       <use x="127.246094" xlink:href="#DejaVuSans-48"/>
       <use x="190.869141" xlink:href="#DejaVuSans-48"/>
      </g>
     </g>
    </g>
    <g id="ytick_4">
     <g id="line2d_8">
      <g>
       <use style="stroke:#000000;stroke-width:0.8;" x="57.6" xlink:href="#m80e0ba164a" y="215.568993"/>
      </g>
     </g>
     <g id="text_8">
      <!-- 3000 -->
      <defs>
       <path d="M 40.578125 39.3125 
Q 47.65625 37.796875 51.625 33 
Q 55.609375 28.21875 55.609375 21.1875 
Q 55.609375 10.40625 48.1875 4.484375 
Q 40.765625 -1.421875 27.09375 -1.421875 
Q 22.515625 -1.421875 17.65625 -0.515625 
Q 12.796875 0.390625 7.625 2.203125 
L 7.625 11.71875 
Q 11.71875 9.328125 16.59375 8.109375 
Q 21.484375 6.890625 26.8125 6.890625 
Q 36.078125 6.890625 40.9375 10.546875 
Q 45.796875 14.203125 45.796875 21.1875 
Q 45.796875 27.640625 41.28125 31.265625 
Q 36.765625 34.90625 28.71875 34.90625 
L 20.21875 34.90625 
L 20.21875 43.015625 
L 29.109375 43.015625 
Q 36.375 43.015625 40.234375 45.921875 
Q 44.09375 48.828125 44.09375 54.296875 
Q 44.09375 59.90625 40.109375 62.90625 
Q 36.140625 65.921875 28.71875 65.921875 
Q 24.65625 65.921875 20.015625 65.03125 
Q 15.375 64.15625 9.8125 62.3125 
L 9.8125 71.09375 
Q 15.4375 72.65625 20.34375 73.4375 
Q 25.25 74.21875 29.59375 74.21875 
Q 40.828125 74.21875 47.359375 69.109375 
Q 53.90625 64.015625 53.90625 55.328125 
Q 53.90625 49.265625 50.4375 45.09375 
Q 46.96875 40.921875 40.578125 39.3125 
z
" id="DejaVuSans-51"/>
      </defs>
      <g transform="translate(25.15 219.368212)scale(0.1 -0.1)">
       <use xlink:href="#DejaVuSans-51"/>
       <use x="63.623047" xlink:href="#DejaVuSans-48"/>
       <use x="127.246094" xlink:href="#DejaVuSans-48"/>
       <use x="190.869141" xlink:href="#DejaVuSans-48"/>
      </g>
     </g>
    </g>
    <g id="ytick_5">
     <g id="line2d_9">
      <g>
       <use style="stroke:#000000;stroke-width:0.8;" x="57.6" xlink:href="#m80e0ba164a" y="184.897324"/>
      </g>
     </g>
     <g id="text_9">
      <!-- 4000 -->
      <g transform="translate(25.15 188.696543)scale(0.1 -0.1)">
       <use xlink:href="#DejaVuSans-52"/>
       <use x="63.623047" xlink:href="#DejaVuSans-48"/>
       <use x="127.246094" xlink:href="#DejaVuSans-48"/>
       <use x="190.869141" xlink:href="#DejaVuSans-48"/>
      </g>
     </g>
    </g>
    <g id="ytick_6">
     <g id="line2d_10">
      <g>
       <use style="stroke:#000000;stroke-width:0.8;" x="57.6" xlink:href="#m80e0ba164a" y="154.225656"/>
      </g>
     </g>
     <g id="text_10">
      <!-- 5000 -->
      <g transform="translate(25.15 158.024874)scale(0.1 -0.1)">
       <use xlink:href="#DejaVuSans-53"/>
       <use x="63.623047" xlink:href="#DejaVuSans-48"/>
       <use x="127.246094" xlink:href="#DejaVuSans-48"/>
       <use x="190.869141" xlink:href="#DejaVuSans-48"/>
      </g>
     </g>
    </g>
    <g id="ytick_7">
     <g id="line2d_11">
      <g>
       <use style="stroke:#000000;stroke-width:0.8;" x="57.6" xlink:href="#m80e0ba164a" y="123.553987"/>
      </g>
     </g>
     <g id="text_11">
      <!-- 6000 -->
      <g transform="translate(25.15 127.353205)scale(0.1 -0.1)">
       <use xlink:href="#DejaVuSans-54"/>
       <use x="63.623047" xlink:href="#DejaVuSans-48"/>
       <use x="127.246094" xlink:href="#DejaVuSans-48"/>
       <use x="190.869141" xlink:href="#DejaVuSans-48"/>
      </g>
     </g>
    </g>
    <g id="ytick_8">
     <g id="line2d_12">
      <g>
       <use style="stroke:#000000;stroke-width:0.8;" x="57.6" xlink:href="#m80e0ba164a" y="92.882318"/>
      </g>
     </g>
     <g id="text_12">
      <!-- 7000 -->
      <defs>
       <path d="M 8.203125 72.90625 
L 55.078125 72.90625 
L 55.078125 68.703125 
L 28.609375 0 
L 18.3125 0 
L 43.21875 64.59375 
L 8.203125 64.59375 
z
" id="DejaVuSans-55"/>
      </defs>
      <g transform="translate(25.15 96.681537)scale(0.1 -0.1)">
       <use xlink:href="#DejaVuSans-55"/>
       <use x="63.623047" xlink:href="#DejaVuSans-48"/>
       <use x="127.246094" xlink:href="#DejaVuSans-48"/>
       <use x="190.869141" xlink:href="#DejaVuSans-48"/>
      </g>
     </g>
    </g>
    <g id="ytick_9">
     <g id="line2d_13">
      <g>
       <use style="stroke:#000000;stroke-width:0.8;" x="57.6" xlink:href="#m80e0ba164a" y="62.210649"/>
      </g>
     </g>
     <g id="text_13">
      <!-- 8000 -->
      <g transform="translate(25.15 66.009868)scale(0.1 -0.1)">
       <use xlink:href="#DejaVuSans-56"/>
       <use x="63.623047" xlink:href="#DejaVuSans-48"/>
       <use x="127.246094" xlink:href="#DejaVuSans-48"/>
       <use x="190.869141" xlink:href="#DejaVuSans-48"/>
      </g>
     </g>
    </g>
   </g>
   <g id="patch_259">
    <path d="M 57.6 307.584 
L 57.6 41.472 
" style="fill:none;stroke:#000000;stroke-linecap:square;stroke-linejoin:miter;stroke-width:0.8;"/>
   </g>
   <g id="patch_260">
    <path d="M 414.72 307.584 
L 414.72 41.472 
" style="fill:none;stroke:#000000;stroke-linecap:square;stroke-linejoin:miter;stroke-width:0.8;"/>
   </g>
   <g id="patch_261">
    <path d="M 57.6 307.584 
L 414.72 307.584 
" style="fill:none;stroke:#000000;stroke-linecap:square;stroke-linejoin:miter;stroke-width:0.8;"/>
   </g>
   <g id="patch_262">
    <path d="M 57.6 41.472 
L 414.72 41.472 
" style="fill:none;stroke:#000000;stroke-linecap:square;stroke-linejoin:miter;stroke-width:0.8;"/>
   </g>
  </g>
 </g>
 <defs>
  <clipPath id="p6e7612dfc6">
   <rect height="266.112" width="357.12" x="57.6" y="41.472"/>
  </clipPath>
 </defs>
</svg>
